<?xml version="1.0" standalone="no"?><!-- Generator: Gravit.io --><svg xmlns="http://www.w3.org/2000/svg" xmlns:xlink="http://www.w3.org/1999/xlink" style="isolation:isolate" viewBox="0 0 283.465 283.465" width="283.465" height="283.465"><g id="null"><g id="kni-simple-shape"><g id="g3761"><path d=" M 70.218 110.587 L 70.218 54.465 L 78.637 54.465 L 87.055 54.465 L 87.055 77.829 L 87.055 101.193 L 89.16 100.856 C 104.664 98.372 117.295 81.379 118.293 61.659 L 118.657 54.465 L 127.075 54.465 L 135.493 54.465 L 135.162 62.181 C 134.302 82.193 125.516 99.217 111.047 108.904 Q 110.438 109.311 108.608 110.587 Q 110.377 111.823 111.047 112.271 C 114.742 114.745 122.29 122.368 125.059 126.423 L 127.744 130.356 L 128.071 115.561 C 128.908 77.647 150.415 54.465 184.751 54.465 L 192.566 54.465 L 192.566 110.587 L 192.566 166.71 L 184.148 166.71 L 175.729 166.71 L 175.729 119.494 L 175.595 72.277 L 173.679 72.61 C 164.962 74.024 153.754 83.405 148.755 93.47 C 144.967 101.096 144.882 102.032 144.871 136.263 L 144.862 166.71 L 131.759 166.71 L 118.657 166.71 L 118.284 159.554 C 117.228 139.278 101.911 120.262 87.167 120.134 C 86.923 120.346 87.365 125.377 87.055 143.419 L 87.055 166.71 L 78.637 166.71 L 70.218 166.71 L 70.218 110.587 Z  M 196.409 110.587 L 196.409 54.465 L 204.828 54.465 L 213.246 54.465 L 213.246 110.587 L 213.246 166.71 L 204.828 166.71 L 196.409 166.71 L 196.409 110.587 Z " fill="rgb(0,0,0)"/></g></g><g id="null"><path d=" M 73.887 214.473 L 73.887 228.746 L 71.215 228.746 L 71.215 214.473 L 73.887 214.473 Z  M 85.996 228.746 L 83.619 228.746 L 79.21 220.883 L 79.21 220.883 Q 79.149 220.771 79.042 220.553 L 79.042 220.553 L 79.042 220.553 Q 78.936 220.334 78.824 220.111 L 78.824 220.111 L 78.824 220.111 Q 78.702 219.847 78.56 219.552 L 78.56 219.552 L 78.478 219.613 L 78.478 219.613 Q 78.489 219.847 78.499 220.07 L 78.499 220.07 L 78.499 220.07 Q 78.509 220.263 78.514 220.461 L 78.514 220.461 L 78.514 220.461 Q 78.519 220.66 78.519 220.802 L 78.519 220.802 L 78.519 228.746 L 76.172 228.746 L 76.172 214.473 L 78.519 214.473 L 82.928 222.336 L 82.928 222.336 Q 83.009 222.478 83.126 222.701 L 83.126 222.701 L 83.126 222.701 Q 83.243 222.925 83.345 223.138 L 83.345 223.138 L 83.345 223.138 Q 83.456 223.392 83.578 223.667 L 83.578 223.667 L 83.639 223.606 L 83.639 223.606 Q 83.629 223.331 83.629 223.098 L 83.629 223.098 L 83.629 223.098 Q 83.619 222.895 83.619 222.701 L 83.619 222.701 L 83.619 222.701 Q 83.619 222.508 83.619 222.417 L 83.619 222.417 L 83.619 214.473 L 85.996 214.473 L 85.996 228.746 Z  M 91.147 228.746 L 88.485 228.746 L 88.485 214.473 L 96.866 214.473 L 96.866 216.85 L 91.147 216.85 L 91.147 220.446 L 96.033 220.446 L 96.033 222.813 L 91.147 222.813 L 91.147 228.746 Z  M 104.292 214.219 L 104.292 214.219 L 104.292 214.219 Q 105.674 214.219 106.776 214.666 L 106.776 214.666 L 106.776 214.666 Q 107.878 215.113 108.645 216.027 L 108.645 216.027 L 108.645 216.027 Q 109.412 216.941 109.819 218.333 L 109.819 218.333 L 109.819 218.333 Q 110.225 219.725 110.225 221.614 L 110.225 221.614 L 110.225 221.614 Q 110.225 223.504 109.819 224.891 L 109.819 224.891 L 109.819 224.891 Q 109.412 226.277 108.645 227.192 L 108.645 227.192 L 108.645 227.192 Q 107.878 228.106 106.776 228.553 L 106.776 228.553 L 106.776 228.553 Q 105.674 229 104.292 229 L 104.292 229 L 104.292 229 Q 102.911 229 101.813 228.553 L 101.813 228.553 L 101.813 228.553 Q 100.716 228.106 99.949 227.192 L 99.949 227.192 L 99.949 227.192 Q 99.182 226.277 98.776 224.891 L 98.776 224.891 L 98.776 224.891 Q 98.37 223.504 98.37 221.614 L 98.37 221.614 L 98.37 221.614 Q 98.37 219.725 98.776 218.333 L 98.776 218.333 L 98.776 218.333 Q 99.182 216.941 99.949 216.027 L 99.949 216.027 L 99.949 216.027 Q 100.716 215.113 101.813 214.666 L 101.813 214.666 L 101.813 214.666 Q 102.911 214.219 104.292 214.219 Z  M 104.292 216.515 L 104.292 216.515 L 104.292 216.515 Q 103.5 216.515 102.9 216.83 L 102.9 216.83 L 102.9 216.83 Q 102.301 217.145 101.905 217.734 L 101.905 217.734 L 101.905 217.734 Q 101.509 218.323 101.311 219.171 L 101.311 219.171 L 101.311 219.171 Q 101.112 220.02 101.112 221.086 L 101.112 221.086 L 101.112 222.133 L 101.112 222.133 Q 101.112 223.199 101.311 224.048 L 101.311 224.048 L 101.311 224.048 Q 101.509 224.896 101.905 225.485 L 101.905 225.485 L 101.905 225.485 Q 102.301 226.074 102.9 226.389 L 102.9 226.389 L 102.9 226.389 Q 103.5 226.704 104.292 226.704 L 104.292 226.704 L 104.292 226.704 Q 105.085 226.704 105.684 226.389 L 105.684 226.389 L 105.684 226.389 Q 106.283 226.074 106.685 225.485 L 106.685 225.485 L 106.685 225.485 Q 107.086 224.896 107.284 224.048 L 107.284 224.048 L 107.284 224.048 Q 107.482 223.199 107.482 222.133 L 107.482 222.133 L 107.482 221.086 L 107.482 221.086 Q 107.482 220.02 107.284 219.171 L 107.284 219.171 L 107.284 219.171 Q 107.086 218.323 106.685 217.734 L 106.685 217.734 L 106.685 217.734 Q 106.283 217.145 105.684 216.83 L 105.684 216.83 L 105.684 216.83 Q 105.085 216.515 104.292 216.515 Z  M 117.61 222.793 L 114.847 222.793 L 114.847 228.746 L 112.186 228.746 L 112.186 214.473 L 118.159 214.473 L 118.159 214.473 Q 119.236 214.473 120.054 214.778 L 120.054 214.778 L 120.054 214.778 Q 120.871 215.082 121.42 215.626 L 121.42 215.626 L 121.42 215.626 Q 121.969 216.169 122.248 216.916 L 122.248 216.916 L 122.248 216.916 Q 122.527 217.663 122.527 218.547 L 122.527 218.547 L 122.527 218.547 Q 122.527 219.197 122.36 219.766 L 122.36 219.766 L 122.36 219.766 Q 122.192 220.334 121.882 220.802 L 121.882 220.802 L 121.882 220.802 Q 121.572 221.269 121.131 221.63 L 121.131 221.63 L 121.131 221.63 Q 120.689 221.99 120.13 222.214 L 120.13 222.214 L 122.883 228.746 L 119.988 228.746 L 117.61 222.793 Z  M 117.885 216.85 L 114.847 216.85 L 114.847 220.446 L 117.783 220.446 L 117.783 220.446 Q 118.758 220.446 119.205 219.943 L 119.205 219.943 L 119.205 219.943 Q 119.652 219.44 119.652 218.547 L 119.652 218.547 L 119.652 218.547 Q 119.652 217.764 119.231 217.307 L 119.231 217.307 L 119.231 217.307 Q 118.809 216.85 117.885 216.85 L 117.885 216.85 Z  M 136.354 228.746 L 133.905 228.746 L 133.905 219.654 L 133.905 219.654 Q 133.905 219.42 133.921 219.029 L 133.921 219.029 L 133.921 219.029 Q 133.936 218.638 133.956 218.272 L 133.956 218.272 L 133.956 218.272 Q 133.976 217.846 134.007 217.368 L 134.007 217.368 L 133.926 217.368 L 131.427 228.746 L 129.12 228.746 L 126.601 217.368 L 126.52 217.368 L 126.52 217.368 Q 126.54 217.866 126.571 218.303 L 126.571 218.303 L 126.571 218.303 Q 126.581 218.486 126.586 218.684 L 126.586 218.684 L 126.586 218.684 Q 126.591 218.882 126.601 219.065 L 126.601 219.065 L 126.601 219.065 Q 126.611 219.247 126.616 219.4 L 126.616 219.4 L 126.616 219.4 Q 126.621 219.552 126.621 219.654 L 126.621 219.654 L 126.621 228.746 L 124.356 228.746 L 124.356 214.473 L 128.094 214.473 L 129.862 222.336 L 129.862 222.336 Q 129.903 222.508 129.948 222.742 L 129.948 222.742 L 129.948 222.742 Q 129.994 222.976 130.04 223.235 L 130.04 223.235 L 130.04 223.235 Q 130.086 223.494 130.136 223.773 L 130.136 223.773 L 130.136 223.773 Q 130.187 224.053 130.228 224.307 L 130.228 224.307 L 130.228 224.307 Q 130.329 224.916 130.431 225.566 L 130.431 225.566 L 130.512 225.566 L 130.512 225.566 Q 130.594 224.886 130.675 224.266 L 130.675 224.266 L 130.675 224.266 Q 130.705 224.002 130.746 223.728 L 130.746 223.728 L 130.746 223.728 Q 130.787 223.453 130.827 223.194 L 130.827 223.194 L 130.827 223.194 Q 130.868 222.935 130.908 222.712 L 130.908 222.712 L 130.908 222.712 Q 130.949 222.488 130.99 222.336 L 130.99 222.336 L 132.737 214.473 L 136.354 214.473 L 136.354 228.746 Z  M 145.161 214.473 L 149.753 228.746 L 147.031 228.746 L 146.157 225.942 L 140.895 225.942 L 140.041 228.746 L 137.461 228.746 L 142.063 214.473 L 145.161 214.473 Z  M 143.577 216.87 L 143.495 216.87 L 143.495 216.87 Q 143.434 217.246 143.363 217.592 L 143.363 217.592 L 143.363 217.592 Q 143.302 217.886 143.231 218.221 L 143.231 218.221 L 143.231 218.221 Q 143.16 218.557 143.079 218.8 L 143.079 218.8 L 141.626 223.565 L 145.425 223.565 L 143.993 218.8 L 143.993 218.8 Q 143.912 218.516 143.831 218.181 L 143.831 218.181 L 143.831 218.181 Q 143.749 217.846 143.698 217.551 L 143.698 217.551 L 143.698 217.551 Q 143.627 217.216 143.577 216.87 L 143.577 216.87 Z  M 159.861 214.473 L 159.861 216.85 L 156.326 216.85 L 156.326 228.746 L 153.664 228.746 L 153.664 216.85 L 150.129 216.85 L 150.129 214.473 L 159.861 214.473 Z  M 171.574 214.473 L 167.226 223.362 L 167.226 228.746 L 164.565 228.746 L 164.565 223.362 L 160.196 214.473 L 163 214.473 L 165.916 220.741 L 165.997 220.741 L 168.892 214.473 L 171.574 214.473 Z  M 175.506 214.473 L 175.506 221.777 L 180.728 214.473 L 183.704 214.473 L 179.478 220.274 L 183.826 228.746 L 180.829 228.746 L 177.731 222.376 L 175.506 225.109 L 175.506 228.746 L 172.824 228.746 L 172.824 214.473 L 175.506 214.473 Z  M 190.521 214.219 L 190.521 214.219 L 190.521 214.219 Q 191.902 214.219 193.005 214.666 L 193.005 214.666 L 193.005 214.666 Q 194.107 215.113 194.874 216.027 L 194.874 216.027 L 194.874 216.027 Q 195.641 216.941 196.047 218.333 L 196.047 218.333 L 196.047 218.333 Q 196.453 219.725 196.453 221.614 L 196.453 221.614 L 196.453 221.614 Q 196.453 223.504 196.047 224.891 L 196.047 224.891 L 196.047 224.891 Q 195.641 226.277 194.874 227.192 L 194.874 227.192 L 194.874 227.192 Q 194.107 228.106 193.005 228.553 L 193.005 228.553 L 193.005 228.553 Q 191.902 229 190.521 229 L 190.521 229 L 190.521 229 Q 189.139 229 188.042 228.553 L 188.042 228.553 L 188.042 228.553 Q 186.945 228.106 186.178 227.192 L 186.178 227.192 L 186.178 227.192 Q 185.411 226.277 185.004 224.891 L 185.004 224.891 L 185.004 224.891 Q 184.598 223.504 184.598 221.614 L 184.598 221.614 L 184.598 221.614 Q 184.598 219.725 185.004 218.333 L 185.004 218.333 L 185.004 218.333 Q 185.411 216.941 186.178 216.027 L 186.178 216.027 L 186.178 216.027 Q 186.945 215.113 188.042 214.666 L 188.042 214.666 L 188.042 214.666 Q 189.139 214.219 190.521 214.219 Z  M 190.521 216.515 L 190.521 216.515 L 190.521 216.515 Q 189.728 216.515 189.129 216.83 L 189.129 216.83 L 189.129 216.83 Q 188.53 217.145 188.133 217.734 L 188.133 217.734 L 188.133 217.734 Q 187.737 218.323 187.539 219.171 L 187.539 219.171 L 187.539 219.171 Q 187.341 220.02 187.341 221.086 L 187.341 221.086 L 187.341 222.133 L 187.341 222.133 Q 187.341 223.199 187.539 224.048 L 187.539 224.048 L 187.539 224.048 Q 187.737 224.896 188.133 225.485 L 188.133 225.485 L 188.133 225.485 Q 188.53 226.074 189.129 226.389 L 189.129 226.389 L 189.129 226.389 Q 189.728 226.704 190.521 226.704 L 190.521 226.704 L 190.521 226.704 Q 191.313 226.704 191.912 226.389 L 191.912 226.389 L 191.912 226.389 Q 192.512 226.074 192.913 225.485 L 192.913 225.485 L 192.913 225.485 Q 193.314 224.896 193.512 224.048 L 193.512 224.048 L 193.512 224.048 Q 193.711 223.199 193.711 222.133 L 193.711 222.133 L 193.711 221.086 L 193.711 221.086 Q 193.711 220.02 193.512 219.171 L 193.512 219.171 L 193.512 219.171 Q 193.314 218.323 192.913 217.734 L 192.913 217.734 L 192.913 217.734 Q 192.512 217.145 191.912 216.83 L 191.912 216.83 L 191.912 216.83 Q 191.313 216.515 190.521 216.515 Z  M 193.386 210.369 L 193.406 210.43 L 191.161 213.122 L 189.098 213.122 L 190.886 210.369 L 193.386 210.369 Z  M 213.246 214.473 L 210.148 228.746 L 207.466 228.746 L 205.525 219.654 L 205.525 219.654 Q 205.464 219.38 205.414 219.034 L 205.414 219.034 L 205.414 219.034 Q 205.363 218.689 205.322 218.374 L 205.322 218.374 L 205.322 218.374 Q 205.282 218.008 205.241 217.632 L 205.241 217.632 L 205.149 217.632 L 205.149 217.632 Q 205.089 218.039 205.048 218.414 L 205.048 218.414 L 205.048 218.414 Q 204.997 218.74 204.956 219.085 L 204.956 219.085 L 204.956 219.085 Q 204.916 219.43 204.865 219.654 L 204.865 219.654 L 202.945 228.746 L 200.263 228.746 L 197.165 214.473 L 199.806 214.473 L 201.513 223.25 L 201.513 223.25 Q 201.563 223.484 201.609 223.829 L 201.609 223.829 L 201.609 223.829 Q 201.655 224.175 201.695 224.489 L 201.695 224.489 L 201.695 224.489 Q 201.736 224.865 201.787 225.251 L 201.787 225.251 L 201.868 225.251 L 201.868 225.251 Q 201.909 224.855 201.949 224.479 L 201.949 224.479 L 201.949 224.479 Q 201.99 224.154 202.036 223.819 L 202.036 223.819 L 202.036 223.819 Q 202.081 223.484 202.132 223.25 L 202.132 223.25 L 203.859 214.473 L 206.876 214.473 L 208.583 223.25 L 208.583 223.25 Q 208.624 223.463 208.675 223.804 L 208.675 223.804 L 208.675 223.804 Q 208.725 224.144 208.766 224.469 L 208.766 224.469 L 208.766 224.469 Q 208.807 224.845 208.857 225.251 L 208.857 225.251 L 208.939 225.251 L 209.02 224.52 L 209.02 224.52 Q 209.061 224.215 209.106 223.865 L 209.106 223.865 L 209.106 223.865 Q 209.152 223.514 209.213 223.25 L 209.213 223.25 L 210.96 214.473 L 213.246 214.473 Z  M 134.809 204.873 L 132.432 204.873 L 128.023 197.01 L 128.023 197.01 Q 127.962 196.898 127.856 196.68 L 127.856 196.68 L 127.856 196.68 Q 127.749 196.461 127.637 196.238 L 127.637 196.238 L 127.637 196.238 Q 127.515 195.973 127.373 195.679 L 127.373 195.679 L 127.292 195.74 L 127.292 195.74 Q 127.302 195.973 127.312 196.197 L 127.312 196.197 L 127.312 196.197 Q 127.322 196.39 127.327 196.588 L 127.327 196.588 L 127.327 196.588 Q 127.333 196.786 127.333 196.928 L 127.333 196.928 L 127.333 204.873 L 124.986 204.873 L 124.986 190.599 L 127.333 190.599 L 131.741 198.462 L 131.741 198.462 Q 131.823 198.605 131.94 198.828 L 131.94 198.828 L 131.94 198.828 Q 132.056 199.052 132.158 199.265 L 132.158 199.265 L 132.158 199.265 Q 132.27 199.519 132.392 199.793 L 132.392 199.793 L 132.453 199.732 L 132.453 199.732 Q 132.442 199.458 132.442 199.224 L 132.442 199.224 L 132.442 199.224 Q 132.432 199.021 132.432 198.828 L 132.432 198.828 L 132.432 198.828 Q 132.432 198.635 132.432 198.544 L 132.432 198.544 L 132.432 190.599 L 134.809 190.599 L 134.809 204.873 Z  M 143.749 190.599 L 148.341 204.873 L 145.618 204.873 L 144.745 202.069 L 139.483 202.069 L 138.629 204.873 L 136.049 204.873 L 140.651 190.599 L 143.749 190.599 Z  M 142.164 192.997 L 142.083 192.997 L 142.083 192.997 Q 142.022 193.373 141.951 193.718 L 141.951 193.718 L 141.951 193.718 Q 141.89 194.013 141.819 194.348 L 141.819 194.348 L 141.819 194.348 Q 141.748 194.683 141.667 194.927 L 141.667 194.927 L 140.214 199.692 L 144.013 199.692 L 142.581 194.927 L 142.581 194.927 Q 142.5 194.643 142.418 194.307 L 142.418 194.307 L 142.418 194.307 Q 142.337 193.972 142.286 193.678 L 142.286 193.678 L 142.286 193.678 Q 142.215 193.342 142.164 192.997 L 142.164 192.997 Z  M 149.631 200.403 L 149.631 190.599 L 152.293 190.599 L 152.293 200.311 L 152.293 200.311 Q 152.293 201.551 152.872 202.191 L 152.872 202.191 L 152.872 202.191 Q 153.451 202.831 154.518 202.831 L 154.518 202.831 L 154.518 202.831 Q 155.584 202.831 156.174 202.191 L 156.174 202.191 L 156.174 202.191 Q 156.763 201.551 156.763 200.311 L 156.763 200.311 L 156.763 190.599 L 159.435 190.599 L 159.435 200.403 L 159.435 200.403 Q 159.435 201.561 159.094 202.445 L 159.094 202.445 L 159.094 202.445 Q 158.754 203.329 158.119 203.923 L 158.119 203.923 L 158.119 203.923 Q 157.484 204.517 156.575 204.822 L 156.575 204.822 L 156.575 204.822 Q 155.666 205.127 154.518 205.127 L 154.518 205.127 L 154.518 205.127 Q 153.37 205.127 152.466 204.822 L 152.466 204.822 L 152.466 204.822 Q 151.561 204.517 150.932 203.923 L 150.932 203.923 L 150.932 203.923 Q 150.302 203.329 149.966 202.445 L 149.966 202.445 L 149.966 202.445 Q 149.631 201.561 149.631 200.403 L 149.631 200.403 Z  M 164.605 190.599 L 164.605 197.904 L 169.827 190.599 L 172.804 190.599 L 168.578 196.4 L 172.926 204.873 L 169.929 204.873 L 166.83 198.503 L 164.605 201.236 L 164.605 204.873 L 161.923 204.873 L 161.923 190.599 L 164.605 190.599 Z  M 179.62 190.345 L 179.62 190.345 L 179.62 190.345 Q 181.002 190.345 182.104 190.792 L 182.104 190.792 L 182.104 190.792 Q 183.206 191.239 183.973 192.154 L 183.973 192.154 L 183.973 192.154 Q 184.74 193.068 185.147 194.46 L 185.147 194.46 L 185.147 194.46 Q 185.553 195.852 185.553 197.741 L 185.553 197.741 L 185.553 197.741 Q 185.553 199.631 185.147 201.017 L 185.147 201.017 L 185.147 201.017 Q 184.74 202.404 183.973 203.318 L 183.973 203.318 L 183.973 203.318 Q 183.206 204.233 182.104 204.68 L 182.104 204.68 L 182.104 204.68 Q 181.002 205.127 179.62 205.127 L 179.62 205.127 L 179.62 205.127 Q 178.239 205.127 177.141 204.68 L 177.141 204.68 L 177.141 204.68 Q 176.044 204.233 175.277 203.318 L 175.277 203.318 L 175.277 203.318 Q 174.51 202.404 174.104 201.017 L 174.104 201.017 L 174.104 201.017 Q 173.698 199.631 173.698 197.741 L 173.698 197.741 L 173.698 197.741 Q 173.698 195.852 174.104 194.46 L 174.104 194.46 L 174.104 194.46 Q 174.51 193.068 175.277 192.154 L 175.277 192.154 L 175.277 192.154 Q 176.044 191.239 177.141 190.792 L 177.141 190.792 L 177.141 190.792 Q 178.239 190.345 179.62 190.345 Z  M 179.62 192.641 L 179.62 192.641 L 179.62 192.641 Q 178.828 192.641 178.228 192.956 L 178.228 192.956 L 178.228 192.956 Q 177.629 193.271 177.233 193.86 L 177.233 193.86 L 177.233 193.86 Q 176.837 194.45 176.639 195.298 L 176.639 195.298 L 176.639 195.298 Q 176.44 196.146 176.44 197.213 L 176.44 197.213 L 176.44 198.259 L 176.44 198.259 Q 176.44 199.326 176.639 200.174 L 176.639 200.174 L 176.639 200.174 Q 176.837 201.022 177.233 201.612 L 177.233 201.612 L 177.233 201.612 Q 177.629 202.201 178.228 202.516 L 178.228 202.516 L 178.228 202.516 Q 178.828 202.831 179.62 202.831 L 179.62 202.831 L 179.62 202.831 Q 180.413 202.831 181.012 202.516 L 181.012 202.516 L 181.012 202.516 Q 181.611 202.201 182.013 201.612 L 182.013 201.612 L 182.013 201.612 Q 182.414 201.022 182.612 200.174 L 182.612 200.174 L 182.612 200.174 Q 182.81 199.326 182.81 198.259 L 182.81 198.259 L 182.81 197.213 L 182.81 197.213 Q 182.81 196.146 182.612 195.298 L 182.612 195.298 L 182.612 195.298 Q 182.414 194.45 182.013 193.86 L 182.013 193.86 L 182.013 193.86 Q 181.611 193.271 181.012 192.956 L 181.012 192.956 L 181.012 192.956 Q 180.413 192.641 179.62 192.641 Z  M 202.346 190.599 L 199.247 204.873 L 196.565 204.873 L 194.625 195.78 L 194.625 195.78 Q 194.564 195.506 194.513 195.161 L 194.513 195.161 L 194.513 195.161 Q 194.462 194.815 194.422 194.5 L 194.422 194.5 L 194.422 194.5 Q 194.381 194.135 194.34 193.759 L 194.34 193.759 L 194.249 193.759 L 194.249 193.759 Q 194.188 194.165 194.147 194.541 L 194.147 194.541 L 194.147 194.541 Q 194.097 194.866 194.056 195.212 L 194.056 195.212 L 194.056 195.212 Q 194.015 195.557 193.965 195.78 L 193.965 195.78 L 192.045 204.873 L 189.363 204.873 L 186.264 190.599 L 188.905 190.599 L 190.612 199.377 L 190.612 199.377 Q 190.663 199.61 190.709 199.956 L 190.709 199.956 L 190.709 199.956 Q 190.754 200.301 190.795 200.616 L 190.795 200.616 L 190.795 200.616 Q 190.836 200.992 190.886 201.378 L 190.886 201.378 L 190.968 201.378 L 190.968 201.378 Q 191.008 200.982 191.049 200.606 L 191.049 200.606 L 191.049 200.606 Q 191.09 200.281 191.135 199.946 L 191.135 199.946 L 191.135 199.946 Q 191.181 199.61 191.232 199.377 L 191.232 199.377 L 192.959 190.599 L 195.976 190.599 L 197.683 199.377 L 197.683 199.377 Q 197.723 199.59 197.774 199.93 L 197.774 199.93 L 197.774 199.93 Q 197.825 200.271 197.866 200.596 L 197.866 200.596 L 197.866 200.596 Q 197.906 200.972 197.957 201.378 L 197.957 201.378 L 198.038 201.378 L 198.12 200.647 L 198.12 200.647 Q 198.16 200.342 198.206 199.991 L 198.206 199.991 L 198.206 199.991 Q 198.252 199.641 198.313 199.377 L 198.313 199.377 L 200.06 190.599 L 202.346 190.599 Z  M 212.83 204.873 L 203.615 204.873 L 203.615 190.599 L 212.708 190.599 L 212.708 192.977 L 206.277 192.977 L 206.277 196.38 L 211.793 196.38 L 211.793 198.757 L 206.277 198.757 L 206.277 202.506 L 212.83 202.506 L 212.83 204.873 Z  M 73.633 190.599 L 73.633 197.904 L 78.854 190.599 L 81.831 190.599 L 77.605 196.4 L 81.953 204.873 L 78.956 204.873 L 75.857 198.503 L 73.633 201.236 L 73.633 204.873 L 70.951 204.873 L 70.951 190.599 L 73.633 190.599 Z  M 88.648 190.345 L 88.648 190.345 L 88.648 190.345 Q 90.029 190.345 91.131 190.792 L 91.131 190.792 L 91.131 190.792 Q 92.234 191.239 93.001 192.154 L 93.001 192.154 L 93.001 192.154 Q 93.768 193.068 94.174 194.46 L 94.174 194.46 L 94.174 194.46 Q 94.58 195.852 94.58 197.741 L 94.58 197.741 L 94.58 197.741 Q 94.58 199.631 94.174 201.017 L 94.174 201.017 L 94.174 201.017 Q 93.768 202.404 93.001 203.318 L 93.001 203.318 L 93.001 203.318 Q 92.234 204.233 91.131 204.68 L 91.131 204.68 L 91.131 204.68 Q 90.029 205.127 88.648 205.127 L 88.648 205.127 L 88.648 205.127 Q 87.266 205.127 86.169 204.68 L 86.169 204.68 L 86.169 204.68 Q 85.072 204.233 84.305 203.318 L 84.305 203.318 L 84.305 203.318 Q 83.538 202.404 83.131 201.017 L 83.131 201.017 L 83.131 201.017 Q 82.725 199.631 82.725 197.741 L 82.725 197.741 L 82.725 197.741 Q 82.725 195.852 83.131 194.46 L 83.131 194.46 L 83.131 194.46 Q 83.538 193.068 84.305 192.154 L 84.305 192.154 L 84.305 192.154 Q 85.072 191.239 86.169 190.792 L 86.169 190.792 L 86.169 190.792 Q 87.266 190.345 88.648 190.345 Z  M 88.648 192.641 L 88.648 192.641 L 88.648 192.641 Q 87.855 192.641 87.256 192.956 L 87.256 192.956 L 87.256 192.956 Q 86.656 193.271 86.26 193.86 L 86.26 193.86 L 86.26 193.86 Q 85.864 194.45 85.666 195.298 L 85.666 195.298 L 85.666 195.298 Q 85.468 196.146 85.468 197.213 L 85.468 197.213 L 85.468 198.259 L 85.468 198.259 Q 85.468 199.326 85.666 200.174 L 85.666 200.174 L 85.666 200.174 Q 85.864 201.022 86.26 201.612 L 86.26 201.612 L 86.26 201.612 Q 86.656 202.201 87.256 202.516 L 87.256 202.516 L 87.256 202.516 Q 87.855 202.831 88.648 202.831 L 88.648 202.831 L 88.648 202.831 Q 89.44 202.831 90.039 202.516 L 90.039 202.516 L 90.039 202.516 Q 90.639 202.201 91.04 201.612 L 91.04 201.612 L 91.04 201.612 Q 91.441 201.022 91.639 200.174 L 91.639 200.174 L 91.639 200.174 Q 91.837 199.326 91.837 198.259 L 91.837 198.259 L 91.837 197.213 L 91.837 197.213 Q 91.837 196.146 91.639 195.298 L 91.639 195.298 L 91.639 195.298 Q 91.441 194.45 91.04 193.86 L 91.04 193.86 L 91.04 193.86 Q 90.639 193.271 90.039 192.956 L 90.039 192.956 L 90.039 192.956 Q 89.44 192.641 88.648 192.641 Z  M 101.62 193.434 L 101.62 195.445 L 99.203 197.589 L 99.203 202.374 L 105.237 202.374 L 105.237 204.873 L 96.541 204.873 L 96.541 199.946 L 95.291 201.043 L 95.291 199.072 L 96.541 197.965 L 96.541 190.599 L 99.203 190.599 L 99.203 195.598 L 101.62 193.434 Z  M 112.348 190.345 L 112.348 190.345 L 112.348 190.345 Q 113.73 190.345 114.832 190.792 L 114.832 190.792 L 114.832 190.792 Q 115.934 191.239 116.701 192.154 L 116.701 192.154 L 116.701 192.154 Q 117.468 193.068 117.875 194.46 L 117.875 194.46 L 117.875 194.46 Q 118.281 195.852 118.281 197.741 L 118.281 197.741 L 118.281 197.741 Q 118.281 199.631 117.875 201.017 L 117.875 201.017 L 117.875 201.017 Q 117.468 202.404 116.701 203.318 L 116.701 203.318 L 116.701 203.318 Q 115.934 204.233 114.832 204.68 L 114.832 204.68 L 114.832 204.68 Q 113.73 205.127 112.348 205.127 L 112.348 205.127 L 112.348 205.127 Q 110.967 205.127 109.869 204.68 L 109.869 204.68 L 109.869 204.68 Q 108.772 204.233 108.005 203.318 L 108.005 203.318 L 108.005 203.318 Q 107.238 202.404 106.832 201.017 L 106.832 201.017 L 106.832 201.017 Q 106.426 199.631 106.426 197.741 L 106.426 197.741 L 106.426 197.741 Q 106.426 195.852 106.832 194.46 L 106.832 194.46 L 106.832 194.46 Q 107.238 193.068 108.005 192.154 L 108.005 192.154 L 108.005 192.154 Q 108.772 191.239 109.869 190.792 L 109.869 190.792 L 109.869 190.792 Q 110.967 190.345 112.348 190.345 Z  M 112.348 192.641 L 112.348 192.641 L 112.348 192.641 Q 111.556 192.641 110.956 192.956 L 110.956 192.956 L 110.956 192.956 Q 110.357 193.271 109.961 193.86 L 109.961 193.86 L 109.961 193.86 Q 109.565 194.45 109.367 195.298 L 109.367 195.298 L 109.367 195.298 Q 109.168 196.146 109.168 197.213 L 109.168 197.213 L 109.168 198.259 L 109.168 198.259 Q 109.168 199.326 109.367 200.174 L 109.367 200.174 L 109.367 200.174 Q 109.565 201.022 109.961 201.612 L 109.961 201.612 L 109.961 201.612 Q 110.357 202.201 110.956 202.516 L 110.956 202.516 L 110.956 202.516 Q 111.556 202.831 112.348 202.831 L 112.348 202.831 L 112.348 202.831 Q 113.141 202.831 113.74 202.516 L 113.74 202.516 L 113.74 202.516 Q 114.339 202.201 114.741 201.612 L 114.741 201.612 L 114.741 201.612 Q 115.142 201.022 115.34 200.174 L 115.34 200.174 L 115.34 200.174 Q 115.538 199.326 115.538 198.259 L 115.538 198.259 L 115.538 197.213 L 115.538 197.213 Q 115.538 196.146 115.34 195.298 L 115.34 195.298 L 115.34 195.298 Q 115.142 194.45 114.741 193.86 L 114.741 193.86 L 114.741 193.86 Q 114.339 193.271 113.74 192.956 L 113.74 192.956 L 113.74 192.956 Q 113.141 192.641 112.348 192.641 Z " fill-rule="evenodd" fill="rgb(0,0,0)"/></g></g></svg>