<?xml version="1.0" standalone="no"?><!-- Generator: Gravit.io --><svg xmlns="http://www.w3.org/2000/svg" xmlns:xlink="http://www.w3.org/1999/xlink" style="isolation:isolate" viewBox="0 0 283.465 283.465" width="283.465" height="283.465"><g id="kni-simple-shape"><g id="g3761"><path d=" M 30.532 141.732 L 30.532 54.465 L 43.623 54.465 L 56.713 54.465 L 56.713 90.795 L 56.713 127.125 L 59.985 126.601 C 84.094 122.739 103.733 96.315 105.285 65.652 L 105.851 54.465 L 118.941 54.465 L 132.031 54.465 L 131.516 66.464 C 130.179 97.581 116.516 124.052 94.018 139.114 Q 93.071 139.748 90.226 141.732 Q 92.977 143.653 94.018 144.35 C 99.764 148.198 111.5 160.051 115.806 166.355 L 119.982 172.471 L 120.49 149.466 C 121.792 90.511 155.233 54.465 208.624 54.465 L 220.776 54.465 L 220.776 141.732 L 220.776 229 L 207.686 229 L 194.596 229 L 194.596 155.581 L 194.386 82.162 L 191.407 82.679 C 177.853 84.879 160.426 99.465 152.652 115.116 C 146.763 126.974 146.631 128.429 146.614 181.657 L 146.598 229 L 126.225 229 L 105.851 229 L 105.272 217.873 C 103.629 186.345 79.813 156.776 56.886 156.577 C 56.506 156.906 57.194 164.729 56.713 192.784 L 56.713 229 L 43.622 229 L 30.532 229 L 30.532 141.732 Z  M 226.752 141.732 L 226.752 54.465 L 239.842 54.465 L 252.932 54.465 L 252.932 141.732 L 252.932 229 L 239.842 229 L 226.752 229 L 226.752 141.732 Z " fill="rgb(0,0,0)"/></g></g></svg>