<?xml version="1.0" standalone="no"?><!-- Generator: Gravit.io --><svg xmlns="http://www.w3.org/2000/svg" xmlns:xlink="http://www.w3.org/1999/xlink" style="isolation:isolate" viewBox="0 0 595.276 841.89" width="595.276" height="841.89"><g id="kni-simple-shape"><g id="g3761"><path d=" M 100.763 420.945 L 100.763 264.695 L 124.2 264.695 L 147.638 264.695 L 147.638 329.743 L 147.638 394.791 L 153.497 393.853 C 196.663 386.938 231.827 339.627 234.605 284.726 L 235.619 264.695 L 259.056 264.695 L 282.493 264.695 L 281.57 286.179 C 279.177 341.893 254.714 389.289 214.431 416.257 Q 212.737 417.392 207.642 420.945 Q 212.568 424.385 214.431 425.632 C 224.721 432.521 245.734 453.743 253.442 465.032 L 260.919 475.982 L 261.829 434.792 C 264.16 329.235 324.036 264.695 419.631 264.695 L 441.388 264.695 L 441.388 420.945 L 441.388 577.195 L 417.95 577.195 L 394.513 577.195 L 394.513 445.74 L 394.138 314.286 L 388.803 315.212 C 364.535 319.151 333.333 345.266 319.415 373.289 C 308.869 394.521 308.633 397.125 308.602 492.429 L 308.575 577.195 L 272.097 577.195 L 235.619 577.195 L 234.581 557.273 C 231.64 500.823 188.997 447.88 147.948 447.524 C 147.268 448.113 148.5 462.12 147.638 512.351 L 147.638 577.195 L 124.2 577.195 L 100.763 577.195 L 100.763 420.945 Z  M 452.087 420.945 L 452.087 264.695 L 475.525 264.695 L 498.962 264.695 L 498.962 420.945 L 498.962 577.195 L 475.525 577.195 L 452.087 577.195 L 452.087 420.945 Z " fill="rgb(0,0,0)"/></g></g></svg>