<?xml version="1.0" standalone="no"?><!-- Generator: Gravit.io --><svg xmlns="http://www.w3.org/2000/svg" xmlns:xlink="http://www.w3.org/1999/xlink" style="isolation:isolate" viewBox="0 0 598.5 841.89" width="598.5" height="841.89"><rect x="297.638" y="500.46" width="300.862" height="341.43" transform="matrix(1,0,0,1,0,0)" fill="rgb(0,0,0)"/><g id="null"><g id="kni-simple-shape"><g id="g3761"><path d=" M 220.023 231.065 L 220.023 170.464 L 229.113 170.464 L 238.203 170.464 L 238.203 195.693 L 238.203 220.921 L 240.476 220.557 C 257.217 217.876 270.855 199.526 271.933 178.233 L 272.326 170.464 L 281.416 170.464 L 290.506 170.464 L 290.148 178.797 C 289.22 200.405 279.732 218.787 264.108 229.247 Q 263.451 229.687 261.475 231.065 Q 263.386 232.399 264.108 232.883 C 268.099 235.555 276.249 243.786 279.238 248.164 L 282.138 252.411 L 282.491 236.435 C 283.395 195.496 306.618 170.464 343.694 170.464 L 352.132 170.464 L 352.132 231.065 L 352.132 291.666 L 343.042 291.666 L 333.952 291.666 L 333.952 240.682 L 333.807 189.698 L 331.738 190.057 C 322.325 191.585 310.224 201.713 304.826 212.582 C 300.736 220.817 300.644 221.827 300.632 258.79 L 300.622 291.666 L 286.474 291.666 L 272.326 291.666 L 271.923 283.939 C 270.783 262.045 254.244 241.512 238.323 241.374 C 238.06 241.602 238.537 247.034 238.203 266.516 L 238.203 291.666 L 229.113 291.666 L 220.023 291.666 L 220.023 231.065 Z  M 356.282 231.065 L 356.282 170.464 L 365.372 170.464 L 374.462 170.464 L 374.462 231.065 L 374.462 291.666 L 365.372 291.666 L 356.282 291.666 L 356.282 231.065 Z " fill="rgb(0,0,0)"/></g></g><g id="null"><path d=" M 223.984 343.239 L 223.984 358.651 L 221.099 358.651 L 221.099 343.239 L 223.984 343.239 Z  M 237.059 358.651 L 234.492 358.651 L 229.732 350.161 L 229.732 350.161 Q 229.666 350.04 229.551 349.804 L 229.551 349.804 L 229.551 349.804 Q 229.435 349.568 229.315 349.327 L 229.315 349.327 L 229.315 349.327 Q 229.183 349.042 229.03 348.724 L 229.03 348.724 L 228.942 348.79 L 228.942 348.79 Q 228.953 349.042 228.964 349.283 L 228.964 349.283 L 228.964 349.283 Q 228.975 349.492 228.98 349.706 L 228.98 349.706 L 228.98 349.706 Q 228.986 349.919 228.986 350.073 L 228.986 350.073 L 228.986 358.651 L 226.452 358.651 L 226.452 343.239 L 228.986 343.239 L 233.746 351.729 L 233.746 351.729 Q 233.834 351.883 233.96 352.124 L 233.96 352.124 L 233.96 352.124 Q 234.086 352.366 234.196 352.596 L 234.196 352.596 L 234.196 352.596 Q 234.317 352.87 234.448 353.166 L 234.448 353.166 L 234.514 353.101 L 234.514 353.101 Q 234.503 352.804 234.503 352.552 L 234.503 352.552 L 234.503 352.552 Q 234.492 352.333 234.492 352.124 L 234.492 352.124 L 234.492 352.124 Q 234.492 351.916 234.492 351.817 L 234.492 351.817 L 234.492 343.239 L 237.059 343.239 L 237.059 358.651 Z  M 242.621 358.651 L 239.747 358.651 L 239.747 343.239 L 248.796 343.239 L 248.796 345.806 L 242.621 345.806 L 242.621 349.689 L 247.897 349.689 L 247.897 352.245 L 242.621 352.245 L 242.621 358.651 Z  M 256.815 342.965 L 256.815 342.965 L 256.815 342.965 Q 258.307 342.965 259.497 343.448 L 259.497 343.448 L 259.497 343.448 Q 260.687 343.93 261.516 344.917 L 261.516 344.917 L 261.516 344.917 Q 262.344 345.905 262.782 347.407 L 262.782 347.407 L 262.782 347.407 Q 263.221 348.91 263.221 350.951 L 263.221 350.951 L 263.221 350.951 Q 263.221 352.991 262.782 354.488 L 262.782 354.488 L 262.782 354.488 Q 262.344 355.986 261.516 356.973 L 261.516 356.973 L 261.516 356.973 Q 260.687 357.96 259.497 358.443 L 259.497 358.443 L 259.497 358.443 Q 258.307 358.925 256.815 358.925 L 256.815 358.925 L 256.815 358.925 Q 255.323 358.925 254.139 358.443 L 254.139 358.443 L 254.139 358.443 Q 252.954 357.96 252.126 356.973 L 252.126 356.973 L 252.126 356.973 Q 251.297 355.986 250.859 354.488 L 250.859 354.488 L 250.859 354.488 Q 250.42 352.991 250.42 350.951 L 250.42 350.951 L 250.42 350.951 Q 250.42 348.91 250.859 347.407 L 250.859 347.407 L 250.859 347.407 Q 251.297 345.905 252.126 344.917 L 252.126 344.917 L 252.126 344.917 Q 252.954 343.93 254.139 343.448 L 254.139 343.448 L 254.139 343.448 Q 255.323 342.965 256.815 342.965 Z  M 256.815 345.444 L 256.815 345.444 L 256.815 345.444 Q 255.96 345.444 255.312 345.784 L 255.312 345.784 L 255.312 345.784 Q 254.665 346.124 254.237 346.76 L 254.237 346.76 L 254.237 346.76 Q 253.809 347.397 253.596 348.312 L 253.596 348.312 L 253.596 348.312 Q 253.382 349.228 253.382 350.38 L 253.382 350.38 L 253.382 351.51 L 253.382 351.51 Q 253.382 352.662 253.596 353.578 L 253.596 353.578 L 253.596 353.578 Q 253.809 354.494 254.237 355.13 L 254.237 355.13 L 254.237 355.13 Q 254.665 355.766 255.312 356.106 L 255.312 356.106 L 255.312 356.106 Q 255.96 356.446 256.815 356.446 L 256.815 356.446 L 256.815 356.446 Q 257.671 356.446 258.318 356.106 L 258.318 356.106 L 258.318 356.106 Q 258.965 355.766 259.398 355.13 L 259.398 355.13 L 259.398 355.13 Q 259.832 354.494 260.046 353.578 L 260.046 353.578 L 260.046 353.578 Q 260.26 352.662 260.26 351.51 L 260.26 351.51 L 260.26 350.38 L 260.26 350.38 Q 260.26 349.228 260.046 348.312 L 260.046 348.312 L 260.046 348.312 Q 259.832 347.397 259.398 346.76 L 259.398 346.76 L 259.398 346.76 Q 258.965 346.124 258.318 345.784 L 258.318 345.784 L 258.318 345.784 Q 257.671 345.444 256.815 345.444 Z  M 271.196 352.223 L 268.212 352.223 L 268.212 358.651 L 265.338 358.651 L 265.338 343.239 L 271.788 343.239 L 271.788 343.239 Q 272.951 343.239 273.834 343.568 L 273.834 343.568 L 273.834 343.568 Q 274.717 343.897 275.31 344.484 L 275.31 344.484 L 275.31 344.484 Q 275.902 345.071 276.204 345.877 L 276.204 345.877 L 276.204 345.877 Q 276.505 346.684 276.505 347.638 L 276.505 347.638 L 276.505 347.638 Q 276.505 348.34 276.324 348.954 L 276.324 348.954 L 276.324 348.954 Q 276.143 349.568 275.809 350.073 L 275.809 350.073 L 275.809 350.073 Q 275.474 350.578 274.997 350.967 L 274.997 350.967 L 274.997 350.967 Q 274.52 351.356 273.916 351.598 L 273.916 351.598 L 276.889 358.651 L 273.763 358.651 L 271.196 352.223 Z  M 271.492 345.806 L 268.212 345.806 L 268.212 349.689 L 271.383 349.689 L 271.383 349.689 Q 272.436 349.689 272.918 349.146 L 272.918 349.146 L 272.918 349.146 Q 273.401 348.603 273.401 347.638 L 273.401 347.638 L 273.401 347.638 Q 273.401 346.793 272.946 346.3 L 272.946 346.3 L 272.946 346.3 Q 272.49 345.806 271.492 345.806 L 271.492 345.806 Z  M 291.435 358.651 L 288.791 358.651 L 288.791 348.834 L 288.791 348.834 Q 288.791 348.581 288.807 348.159 L 288.807 348.159 L 288.807 348.159 Q 288.824 347.737 288.846 347.342 L 288.846 347.342 L 288.846 347.342 Q 288.868 346.881 288.901 346.365 L 288.901 346.365 L 288.813 346.365 L 286.114 358.651 L 283.624 358.651 L 280.904 346.365 L 280.816 346.365 L 280.816 346.365 Q 280.838 346.903 280.871 347.375 L 280.871 347.375 L 280.871 347.375 Q 280.882 347.572 280.888 347.786 L 280.888 347.786 L 280.888 347.786 Q 280.893 348 280.904 348.197 L 280.904 348.197 L 280.904 348.197 Q 280.915 348.395 280.92 348.559 L 280.92 348.559 L 280.92 348.559 Q 280.926 348.724 280.926 348.834 L 280.926 348.834 L 280.926 358.651 L 278.48 358.651 L 278.48 343.239 L 282.516 343.239 L 284.425 351.729 L 284.425 351.729 Q 284.469 351.916 284.518 352.168 L 284.518 352.168 L 284.518 352.168 Q 284.568 352.421 284.617 352.7 L 284.617 352.7 L 284.617 352.7 Q 284.666 352.98 284.721 353.282 L 284.721 353.282 L 284.721 353.282 Q 284.776 353.583 284.82 353.858 L 284.82 353.858 L 284.82 353.858 Q 284.93 354.516 285.039 355.218 L 285.039 355.218 L 285.127 355.218 L 285.127 355.218 Q 285.215 354.483 285.303 353.814 L 285.303 353.814 L 285.303 353.814 Q 285.336 353.528 285.379 353.232 L 285.379 353.232 L 285.379 353.232 Q 285.423 352.936 285.467 352.656 L 285.467 352.656 L 285.467 352.656 Q 285.511 352.377 285.555 352.135 L 285.555 352.135 L 285.555 352.135 Q 285.599 351.894 285.643 351.729 L 285.643 351.729 L 287.529 343.239 L 291.435 343.239 L 291.435 358.651 Z  M 300.945 343.239 L 305.903 358.651 L 302.963 358.651 L 302.02 355.624 L 296.338 355.624 L 295.416 358.651 L 292.63 358.651 L 297.599 343.239 L 300.945 343.239 Z  M 299.234 345.828 L 299.146 345.828 L 299.146 345.828 Q 299.08 346.234 299.003 346.607 L 299.003 346.607 L 299.003 346.607 Q 298.938 346.925 298.861 347.287 L 298.861 347.287 L 298.861 347.287 Q 298.784 347.649 298.696 347.912 L 298.696 347.912 L 297.128 353.057 L 301.23 353.057 L 299.684 347.912 L 299.684 347.912 Q 299.596 347.605 299.508 347.243 L 299.508 347.243 L 299.508 347.243 Q 299.42 346.881 299.365 346.563 L 299.365 346.563 L 299.365 346.563 Q 299.289 346.201 299.234 345.828 L 299.234 345.828 Z  M 316.818 343.239 L 316.818 345.806 L 313 345.806 L 313 358.651 L 310.126 358.651 L 310.126 345.806 L 306.309 345.806 L 306.309 343.239 L 316.818 343.239 Z  M 329.466 343.239 L 324.771 352.837 L 324.771 358.651 L 321.897 358.651 L 321.897 352.837 L 317.18 343.239 L 320.207 343.239 L 323.356 350.007 L 323.443 350.007 L 326.57 343.239 L 329.466 343.239 Z  M 333.711 343.239 L 333.711 351.126 L 339.349 343.239 L 342.563 343.239 L 338 349.503 L 342.695 358.651 L 339.459 358.651 L 336.113 351.773 L 333.711 354.724 L 333.711 358.651 L 330.815 358.651 L 330.815 343.239 L 333.711 343.239 Z  M 349.924 342.965 L 349.924 342.965 L 349.924 342.965 Q 351.415 342.965 352.606 343.448 L 352.606 343.448 L 352.606 343.448 Q 353.796 343.93 354.624 344.917 L 354.624 344.917 L 354.624 344.917 Q 355.452 345.905 355.891 347.407 L 355.891 347.407 L 355.891 347.407 Q 356.33 348.91 356.33 350.951 L 356.33 350.951 L 356.33 350.951 Q 356.33 352.991 355.891 354.488 L 355.891 354.488 L 355.891 354.488 Q 355.452 355.986 354.624 356.973 L 354.624 356.973 L 354.624 356.973 Q 353.796 357.96 352.606 358.443 L 352.606 358.443 L 352.606 358.443 Q 351.415 358.925 349.924 358.925 L 349.924 358.925 L 349.924 358.925 Q 348.432 358.925 347.247 358.443 L 347.247 358.443 L 347.247 358.443 Q 346.062 357.96 345.234 356.973 L 345.234 356.973 L 345.234 356.973 Q 344.406 355.986 343.967 354.488 L 343.967 354.488 L 343.967 354.488 Q 343.528 352.991 343.528 350.951 L 343.528 350.951 L 343.528 350.951 Q 343.528 348.91 343.967 347.407 L 343.967 347.407 L 343.967 347.407 Q 344.406 345.905 345.234 344.917 L 345.234 344.917 L 345.234 344.917 Q 346.062 343.93 347.247 343.448 L 347.247 343.448 L 347.247 343.448 Q 348.432 342.965 349.924 342.965 Z  M 349.924 345.444 L 349.924 345.444 L 349.924 345.444 Q 349.068 345.444 348.421 345.784 L 348.421 345.784 L 348.421 345.784 Q 347.774 346.124 347.346 346.76 L 347.346 346.76 L 347.346 346.76 Q 346.918 347.397 346.704 348.312 L 346.704 348.312 L 346.704 348.312 Q 346.49 349.228 346.49 350.38 L 346.49 350.38 L 346.49 351.51 L 346.49 351.51 Q 346.49 352.662 346.704 353.578 L 346.704 353.578 L 346.704 353.578 Q 346.918 354.494 347.346 355.13 L 347.346 355.13 L 347.346 355.13 Q 347.774 355.766 348.421 356.106 L 348.421 356.106 L 348.421 356.106 Q 349.068 356.446 349.924 356.446 L 349.924 356.446 L 349.924 356.446 Q 350.779 356.446 351.426 356.106 L 351.426 356.106 L 351.426 356.106 Q 352.074 355.766 352.507 355.13 L 352.507 355.13 L 352.507 355.13 Q 352.94 354.494 353.154 353.578 L 353.154 353.578 L 353.154 353.578 Q 353.368 352.662 353.368 351.51 L 353.368 351.51 L 353.368 350.38 L 353.368 350.38 Q 353.368 349.228 353.154 348.312 L 353.154 348.312 L 353.154 348.312 Q 352.94 347.397 352.507 346.76 L 352.507 346.76 L 352.507 346.76 Q 352.074 346.124 351.426 345.784 L 351.426 345.784 L 351.426 345.784 Q 350.779 345.444 349.924 345.444 Z  M 353.017 338.807 L 353.039 338.873 L 350.615 341.78 L 348.388 341.78 L 350.318 338.807 L 353.017 338.807 Z  M 374.462 343.239 L 371.116 358.651 L 368.221 358.651 L 366.125 348.834 L 366.125 348.834 Q 366.06 348.537 366.005 348.164 L 366.005 348.164 L 366.005 348.164 Q 365.95 347.791 365.906 347.451 L 365.906 347.451 L 365.906 347.451 Q 365.862 347.056 365.818 346.651 L 365.818 346.651 L 365.719 346.651 L 365.719 346.651 Q 365.654 347.089 365.61 347.495 L 365.61 347.495 L 365.61 347.495 Q 365.555 347.846 365.511 348.219 L 365.511 348.219 L 365.511 348.219 Q 365.467 348.592 365.412 348.834 L 365.412 348.834 L 363.339 358.651 L 360.443 358.651 L 357.098 343.239 L 359.95 343.239 L 361.792 352.717 L 361.792 352.717 Q 361.847 352.969 361.897 353.342 L 361.897 353.342 L 361.897 353.342 Q 361.946 353.715 361.99 354.055 L 361.99 354.055 L 361.99 354.055 Q 362.034 354.461 362.089 354.878 L 362.089 354.878 L 362.176 354.878 L 362.176 354.878 Q 362.22 354.45 362.264 354.044 L 362.264 354.044 L 362.264 354.044 Q 362.308 353.693 362.357 353.331 L 362.357 353.331 L 362.357 353.331 Q 362.407 352.969 362.462 352.717 L 362.462 352.717 L 364.326 343.239 L 367.584 343.239 L 369.427 352.717 L 369.427 352.717 Q 369.471 352.947 369.526 353.315 L 369.526 353.315 L 369.526 353.315 Q 369.581 353.682 369.625 354.033 L 369.625 354.033 L 369.625 354.033 Q 369.668 354.439 369.723 354.878 L 369.723 354.878 L 369.811 354.878 L 369.899 354.088 L 369.899 354.088 Q 369.943 353.759 369.992 353.38 L 369.992 353.38 L 369.992 353.38 Q 370.041 353.002 370.107 352.717 L 370.107 352.717 L 371.994 343.239 L 374.462 343.239 Z  M 289.767 332.873 L 287.2 332.873 L 282.44 324.383 L 282.44 324.383 Q 282.374 324.262 282.259 324.026 L 282.259 324.026 L 282.259 324.026 Q 282.143 323.79 282.023 323.549 L 282.023 323.549 L 282.023 323.549 Q 281.891 323.264 281.738 322.946 L 281.738 322.946 L 281.65 323.012 L 281.65 323.012 Q 281.661 323.264 281.672 323.505 L 281.672 323.505 L 281.672 323.505 Q 281.683 323.714 281.688 323.927 L 281.688 323.927 L 281.688 323.927 Q 281.694 324.141 281.694 324.295 L 281.694 324.295 L 281.694 332.873 L 279.16 332.873 L 279.16 317.461 L 281.694 317.461 L 286.454 325.951 L 286.454 325.951 Q 286.542 326.105 286.668 326.346 L 286.668 326.346 L 286.668 326.346 Q 286.795 326.588 286.904 326.818 L 286.904 326.818 L 286.904 326.818 Q 287.025 327.092 287.157 327.388 L 287.157 327.388 L 287.222 327.322 L 287.222 327.322 Q 287.211 327.026 287.211 326.774 L 287.211 326.774 L 287.211 326.774 Q 287.2 326.555 287.2 326.346 L 287.2 326.346 L 287.2 326.346 Q 287.2 326.138 287.2 326.039 L 287.2 326.039 L 287.2 317.461 L 289.767 317.461 L 289.767 332.873 Z  M 299.42 317.461 L 304.378 332.873 L 301.439 332.873 L 300.495 329.845 L 294.813 329.845 L 293.892 332.873 L 291.106 332.873 L 296.075 317.461 L 299.42 317.461 Z  M 297.709 320.05 L 297.621 320.05 L 297.621 320.05 Q 297.556 320.456 297.479 320.829 L 297.479 320.829 L 297.479 320.829 Q 297.413 321.147 297.336 321.509 L 297.336 321.509 L 297.336 321.509 Q 297.259 321.871 297.172 322.134 L 297.172 322.134 L 295.603 327.279 L 299.706 327.279 L 298.159 322.134 L 298.159 322.134 Q 298.071 321.827 297.983 321.465 L 297.983 321.465 L 297.983 321.465 Q 297.896 321.103 297.841 320.785 L 297.841 320.785 L 297.841 320.785 Q 297.764 320.423 297.709 320.05 L 297.709 320.05 Z  M 305.772 328.046 L 305.772 317.461 L 308.646 317.461 L 308.646 327.948 L 308.646 327.948 Q 308.646 329.286 309.271 329.977 L 309.271 329.977 L 309.271 329.977 Q 309.896 330.668 311.048 330.668 L 311.048 330.668 L 311.048 330.668 Q 312.2 330.668 312.836 329.977 L 312.836 329.977 L 312.836 329.977 Q 313.472 329.286 313.472 327.948 L 313.472 327.948 L 313.472 317.461 L 316.357 317.461 L 316.357 328.046 L 316.357 328.046 Q 316.357 329.297 315.99 330.251 L 315.99 330.251 L 315.99 330.251 Q 315.622 331.206 314.937 331.847 L 314.937 331.847 L 314.937 331.847 Q 314.251 332.489 313.269 332.818 L 313.269 332.818 L 313.269 332.818 Q 312.287 333.147 311.048 333.147 L 311.048 333.147 L 311.048 333.147 Q 309.808 333.147 308.832 332.818 L 308.832 332.818 L 308.832 332.818 Q 307.856 332.489 307.176 331.847 L 307.176 331.847 L 307.176 331.847 Q 306.496 331.206 306.134 330.251 L 306.134 330.251 L 306.134 330.251 Q 305.772 329.297 305.772 328.046 L 305.772 328.046 Z  M 321.941 317.461 L 321.941 325.348 L 327.579 317.461 L 330.793 317.461 L 326.23 323.725 L 330.924 332.873 L 327.689 332.873 L 324.343 325.995 L 321.941 328.946 L 321.941 332.873 L 319.045 332.873 L 319.045 317.461 L 321.941 317.461 Z  M 338.153 317.187 L 338.153 317.187 L 338.153 317.187 Q 339.645 317.187 340.835 317.669 L 340.835 317.669 L 340.835 317.669 Q 342.026 318.152 342.854 319.139 L 342.854 319.139 L 342.854 319.139 Q 343.682 320.127 344.121 321.629 L 344.121 321.629 L 344.121 321.629 Q 344.559 323.132 344.559 325.172 L 344.559 325.172 L 344.559 325.172 Q 344.559 327.213 344.121 328.71 L 344.121 328.71 L 344.121 328.71 Q 343.682 330.207 342.854 331.195 L 342.854 331.195 L 342.854 331.195 Q 342.026 332.182 340.835 332.665 L 340.835 332.665 L 340.835 332.665 Q 339.645 333.147 338.153 333.147 L 338.153 333.147 L 338.153 333.147 Q 336.661 333.147 335.477 332.665 L 335.477 332.665 L 335.477 332.665 Q 334.292 332.182 333.464 331.195 L 333.464 331.195 L 333.464 331.195 Q 332.636 330.207 332.197 328.71 L 332.197 328.71 L 332.197 328.71 Q 331.758 327.213 331.758 325.172 L 331.758 325.172 L 331.758 325.172 Q 331.758 323.132 332.197 321.629 L 332.197 321.629 L 332.197 321.629 Q 332.636 320.127 333.464 319.139 L 333.464 319.139 L 333.464 319.139 Q 334.292 318.152 335.477 317.669 L 335.477 317.669 L 335.477 317.669 Q 336.661 317.187 338.153 317.187 Z  M 338.153 319.666 L 338.153 319.666 L 338.153 319.666 Q 337.298 319.666 336.651 320.006 L 336.651 320.006 L 336.651 320.006 Q 336.003 320.346 335.576 320.982 L 335.576 320.982 L 335.576 320.982 Q 335.148 321.618 334.934 322.534 L 334.934 322.534 L 334.934 322.534 Q 334.72 323.45 334.72 324.602 L 334.72 324.602 L 334.72 325.732 L 334.72 325.732 Q 334.72 326.884 334.934 327.8 L 334.934 327.8 L 334.934 327.8 Q 335.148 328.716 335.576 329.352 L 335.576 329.352 L 335.576 329.352 Q 336.003 329.988 336.651 330.328 L 336.651 330.328 L 336.651 330.328 Q 337.298 330.668 338.153 330.668 L 338.153 330.668 L 338.153 330.668 Q 339.009 330.668 339.656 330.328 L 339.656 330.328 L 339.656 330.328 Q 340.303 329.988 340.737 329.352 L 340.737 329.352 L 340.737 329.352 Q 341.17 328.716 341.384 327.8 L 341.384 327.8 L 341.384 327.8 Q 341.598 326.884 341.598 325.732 L 341.598 325.732 L 341.598 324.602 L 341.598 324.602 Q 341.598 323.45 341.384 322.534 L 341.384 322.534 L 341.384 322.534 Q 341.17 321.618 340.737 320.982 L 340.737 320.982 L 340.737 320.982 Q 340.303 320.346 339.656 320.006 L 339.656 320.006 L 339.656 320.006 Q 339.009 319.666 338.153 319.666 Z  M 362.692 317.461 L 359.346 332.873 L 356.45 332.873 L 354.355 323.055 L 354.355 323.055 Q 354.289 322.759 354.234 322.386 L 354.234 322.386 L 354.234 322.386 Q 354.18 322.013 354.136 321.673 L 354.136 321.673 L 354.136 321.673 Q 354.092 321.278 354.048 320.872 L 354.048 320.872 L 353.949 320.872 L 353.949 320.872 Q 353.883 321.311 353.84 321.717 L 353.84 321.717 L 353.84 321.717 Q 353.785 322.068 353.741 322.441 L 353.741 322.441 L 353.741 322.441 Q 353.697 322.814 353.642 323.055 L 353.642 323.055 L 351.569 332.873 L 348.673 332.873 L 345.327 317.461 L 348.179 317.461 L 350.022 326.939 L 350.022 326.939 Q 350.077 327.191 350.126 327.564 L 350.126 327.564 L 350.126 327.564 Q 350.176 327.937 350.22 328.277 L 350.22 328.277 L 350.22 328.277 Q 350.264 328.683 350.318 329.1 L 350.318 329.1 L 350.406 329.1 L 350.406 329.1 Q 350.45 328.672 350.494 328.266 L 350.494 328.266 L 350.494 328.266 Q 350.538 327.915 350.587 327.553 L 350.587 327.553 L 350.587 327.553 Q 350.637 327.191 350.691 326.939 L 350.691 326.939 L 352.556 317.461 L 355.814 317.461 L 357.657 326.939 L 357.657 326.939 Q 357.701 327.169 357.756 327.536 L 357.756 327.536 L 357.756 327.536 Q 357.811 327.904 357.854 328.255 L 357.854 328.255 L 357.854 328.255 Q 357.898 328.661 357.953 329.1 L 357.953 329.1 L 358.041 329.1 L 358.129 328.31 L 358.129 328.31 Q 358.173 327.981 358.222 327.602 L 358.222 327.602 L 358.222 327.602 Q 358.271 327.224 358.337 326.939 L 358.337 326.939 L 360.224 317.461 L 362.692 317.461 Z  M 374.012 332.873 L 364.063 332.873 L 364.063 317.461 L 373.881 317.461 L 373.881 320.028 L 366.937 320.028 L 366.937 323.703 L 372.893 323.703 L 372.893 326.269 L 366.937 326.269 L 366.937 330.317 L 374.012 330.317 L 374.012 332.873 Z  M 223.709 317.461 L 223.709 325.348 L 229.348 317.461 L 232.562 317.461 L 227.998 323.725 L 232.693 332.873 L 229.457 332.873 L 226.112 325.995 L 223.709 328.946 L 223.709 332.873 L 220.813 332.873 L 220.813 317.461 L 223.709 317.461 Z  M 239.922 317.187 L 239.922 317.187 L 239.922 317.187 Q 241.414 317.187 242.604 317.669 L 242.604 317.669 L 242.604 317.669 Q 243.794 318.152 244.623 319.139 L 244.623 319.139 L 244.623 319.139 Q 245.451 320.127 245.89 321.629 L 245.89 321.629 L 245.89 321.629 Q 246.328 323.132 246.328 325.172 L 246.328 325.172 L 246.328 325.172 Q 246.328 327.213 245.89 328.71 L 245.89 328.71 L 245.89 328.71 Q 245.451 330.207 244.623 331.195 L 244.623 331.195 L 244.623 331.195 Q 243.794 332.182 242.604 332.665 L 242.604 332.665 L 242.604 332.665 Q 241.414 333.147 239.922 333.147 L 239.922 333.147 L 239.922 333.147 Q 238.43 333.147 237.246 332.665 L 237.246 332.665 L 237.246 332.665 Q 236.061 332.182 235.233 331.195 L 235.233 331.195 L 235.233 331.195 Q 234.405 330.207 233.966 328.71 L 233.966 328.71 L 233.966 328.71 Q 233.527 327.213 233.527 325.172 L 233.527 325.172 L 233.527 325.172 Q 233.527 323.132 233.966 321.629 L 233.966 321.629 L 233.966 321.629 Q 234.405 320.127 235.233 319.139 L 235.233 319.139 L 235.233 319.139 Q 236.061 318.152 237.246 317.669 L 237.246 317.669 L 237.246 317.669 Q 238.43 317.187 239.922 317.187 Z  M 239.922 319.666 L 239.922 319.666 L 239.922 319.666 Q 239.067 319.666 238.419 320.006 L 238.419 320.006 L 238.419 320.006 Q 237.772 320.346 237.344 320.982 L 237.344 320.982 L 237.344 320.982 Q 236.917 321.618 236.703 322.534 L 236.703 322.534 L 236.703 322.534 Q 236.489 323.45 236.489 324.602 L 236.489 324.602 L 236.489 325.732 L 236.489 325.732 Q 236.489 326.884 236.703 327.8 L 236.703 327.8 L 236.703 327.8 Q 236.917 328.716 237.344 329.352 L 237.344 329.352 L 237.344 329.352 Q 237.772 329.988 238.419 330.328 L 238.419 330.328 L 238.419 330.328 Q 239.067 330.668 239.922 330.668 L 239.922 330.668 L 239.922 330.668 Q 240.778 330.668 241.425 330.328 L 241.425 330.328 L 241.425 330.328 Q 242.072 329.988 242.506 329.352 L 242.506 329.352 L 242.506 329.352 Q 242.939 328.716 243.153 327.8 L 243.153 327.8 L 243.153 327.8 Q 243.367 326.884 243.367 325.732 L 243.367 325.732 L 243.367 324.602 L 243.367 324.602 Q 243.367 323.45 243.153 322.534 L 243.153 322.534 L 243.153 322.534 Q 242.939 321.618 242.506 320.982 L 242.506 320.982 L 242.506 320.982 Q 242.072 320.346 241.425 320.006 L 241.425 320.006 L 241.425 320.006 Q 240.778 319.666 239.922 319.666 Z  M 253.93 320.521 L 253.93 322.693 L 251.319 325.008 L 251.319 330.175 L 257.835 330.175 L 257.835 332.873 L 248.445 332.873 L 248.445 327.553 L 247.096 328.738 L 247.096 326.609 L 248.445 325.414 L 248.445 317.461 L 251.319 317.461 L 251.319 322.858 L 253.93 320.521 Z  M 265.514 317.187 L 265.514 317.187 L 265.514 317.187 Q 267.006 317.187 268.196 317.669 L 268.196 317.669 L 268.196 317.669 Q 269.386 318.152 270.214 319.139 L 270.214 319.139 L 270.214 319.139 Q 271.042 320.127 271.481 321.629 L 271.481 321.629 L 271.481 321.629 Q 271.92 323.132 271.92 325.172 L 271.92 325.172 L 271.92 325.172 Q 271.92 327.213 271.481 328.71 L 271.481 328.71 L 271.481 328.71 Q 271.042 330.207 270.214 331.195 L 270.214 331.195 L 270.214 331.195 Q 269.386 332.182 268.196 332.665 L 268.196 332.665 L 268.196 332.665 Q 267.006 333.147 265.514 333.147 L 265.514 333.147 L 265.514 333.147 Q 264.022 333.147 262.837 332.665 L 262.837 332.665 L 262.837 332.665 Q 261.653 332.182 260.824 331.195 L 260.824 331.195 L 260.824 331.195 Q 259.996 330.207 259.557 328.71 L 259.557 328.71 L 259.557 328.71 Q 259.119 327.213 259.119 325.172 L 259.119 325.172 L 259.119 325.172 Q 259.119 323.132 259.557 321.629 L 259.557 321.629 L 259.557 321.629 Q 259.996 320.127 260.824 319.139 L 260.824 319.139 L 260.824 319.139 Q 261.653 318.152 262.837 317.669 L 262.837 317.669 L 262.837 317.669 Q 264.022 317.187 265.514 317.187 Z  M 265.514 319.666 L 265.514 319.666 L 265.514 319.666 Q 264.658 319.666 264.011 320.006 L 264.011 320.006 L 264.011 320.006 Q 263.364 320.346 262.936 320.982 L 262.936 320.982 L 262.936 320.982 Q 262.508 321.618 262.294 322.534 L 262.294 322.534 L 262.294 322.534 Q 262.08 323.45 262.08 324.602 L 262.08 324.602 L 262.08 325.732 L 262.08 325.732 Q 262.08 326.884 262.294 327.8 L 262.294 327.8 L 262.294 327.8 Q 262.508 328.716 262.936 329.352 L 262.936 329.352 L 262.936 329.352 Q 263.364 329.988 264.011 330.328 L 264.011 330.328 L 264.011 330.328 Q 264.658 330.668 265.514 330.668 L 265.514 330.668 L 265.514 330.668 Q 266.369 330.668 267.017 330.328 L 267.017 330.328 L 267.017 330.328 Q 267.664 329.988 268.097 329.352 L 268.097 329.352 L 268.097 329.352 Q 268.53 328.716 268.744 327.8 L 268.744 327.8 L 268.744 327.8 Q 268.958 326.884 268.958 325.732 L 268.958 325.732 L 268.958 324.602 L 268.958 324.602 Q 268.958 323.45 268.744 322.534 L 268.744 322.534 L 268.744 322.534 Q 268.53 321.618 268.097 320.982 L 268.097 320.982 L 268.097 320.982 Q 267.664 320.346 267.017 320.006 L 267.017 320.006 L 267.017 320.006 Q 266.369 319.666 265.514 319.666 Z " fill-rule="evenodd" fill="rgb(0,0,0)"/></g></g><rect x="0" y="500.46" width="297.638" height="341.43" transform="matrix(1,0,0,1,0,0)" fill="rgb(235,235,235)"/><g id="null"><g id="kni-simple-shape"><g id="g3761"><path d=" M 369.237 646.553 L 369.237 585.952 L 378.327 585.952 L 387.417 585.952 L 387.417 611.181 L 387.417 636.409 L 389.69 636.045 C 406.431 633.363 420.069 615.014 421.147 593.721 L 421.54 585.952 L 430.63 585.952 L 439.72 585.952 L 439.362 594.285 C 438.434 615.893 428.946 634.275 413.323 644.735 Q 412.666 645.175 410.689 646.553 Q 412.6 647.887 413.323 648.371 C 417.313 651.042 425.463 659.273 428.453 663.652 L 431.353 667.899 L 431.705 651.923 C 432.61 610.984 455.832 585.952 492.908 585.952 L 501.346 585.952 L 501.346 646.553 L 501.346 707.153 L 492.256 707.153 L 483.166 707.153 L 483.166 656.17 L 483.021 605.186 L 480.952 605.545 C 471.539 607.072 459.438 617.201 454.04 628.07 C 449.95 636.305 449.858 637.314 449.846 674.277 L 449.836 707.153 L 435.688 707.153 L 421.54 707.153 L 421.138 699.427 C 419.997 677.533 403.458 656.999 387.538 656.861 C 387.274 657.09 387.752 662.522 387.417 682.004 L 387.417 707.153 L 378.327 707.153 L 369.237 707.153 L 369.237 646.553 Z  M 505.496 646.553 L 505.496 585.952 L 514.586 585.952 L 523.676 585.952 L 523.676 646.553 L 523.676 707.153 L 514.586 707.153 L 505.496 707.153 L 505.496 646.553 Z " fill="rgb(255,255,255)"/></g></g><g id="null"><path d=" M 373.198 758.727 L 373.198 774.139 L 370.313 774.139 L 370.313 758.727 L 373.198 758.727 Z  M 386.273 774.139 L 383.707 774.139 L 378.946 765.649 L 378.946 765.649 Q 378.88 765.528 378.765 765.292 L 378.765 765.292 L 378.765 765.292 Q 378.65 765.056 378.529 764.815 L 378.529 764.815 L 378.529 764.815 Q 378.397 764.53 378.244 764.212 L 378.244 764.212 L 378.156 764.277 L 378.156 764.277 Q 378.167 764.53 378.178 764.771 L 378.178 764.771 L 378.178 764.771 Q 378.189 764.979 378.194 765.193 L 378.194 765.193 L 378.194 765.193 Q 378.2 765.407 378.2 765.561 L 378.2 765.561 L 378.2 774.139 L 375.666 774.139 L 375.666 758.727 L 378.2 758.727 L 382.961 767.217 L 382.961 767.217 Q 383.048 767.371 383.175 767.612 L 383.175 767.612 L 383.175 767.612 Q 383.301 767.853 383.41 768.084 L 383.41 768.084 L 383.41 768.084 Q 383.531 768.358 383.663 768.654 L 383.663 768.654 L 383.729 768.588 L 383.729 768.588 Q 383.718 768.292 383.718 768.04 L 383.718 768.04 L 383.718 768.04 Q 383.707 767.821 383.707 767.612 L 383.707 767.612 L 383.707 767.612 Q 383.707 767.404 383.707 767.305 L 383.707 767.305 L 383.707 758.727 L 386.273 758.727 L 386.273 774.139 Z  M 391.835 774.139 L 388.961 774.139 L 388.961 758.727 L 398.011 758.727 L 398.011 761.294 L 391.835 761.294 L 391.835 765.177 L 397.111 765.177 L 397.111 767.733 L 391.835 767.733 L 391.835 774.139 Z  M 406.029 758.453 L 406.029 758.453 L 406.029 758.453 Q 407.521 758.453 408.711 758.935 L 408.711 758.935 L 408.711 758.935 Q 409.902 759.418 410.73 760.405 L 410.73 760.405 L 410.73 760.405 Q 411.558 761.392 411.997 762.895 L 411.997 762.895 L 411.997 762.895 Q 412.436 764.398 412.436 766.438 L 412.436 766.438 L 412.436 766.438 Q 412.436 768.479 411.997 769.976 L 411.997 769.976 L 411.997 769.976 Q 411.558 771.473 410.73 772.461 L 410.73 772.461 L 410.73 772.461 Q 409.902 773.448 408.711 773.93 L 408.711 773.93 L 408.711 773.93 Q 407.521 774.413 406.029 774.413 L 406.029 774.413 L 406.029 774.413 Q 404.538 774.413 403.353 773.93 L 403.353 773.93 L 403.353 773.93 Q 402.168 773.448 401.34 772.461 L 401.34 772.461 L 401.34 772.461 Q 400.512 771.473 400.073 769.976 L 400.073 769.976 L 400.073 769.976 Q 399.634 768.479 399.634 766.438 L 399.634 766.438 L 399.634 766.438 Q 399.634 764.398 400.073 762.895 L 400.073 762.895 L 400.073 762.895 Q 400.512 761.392 401.34 760.405 L 401.34 760.405 L 401.34 760.405 Q 402.168 759.418 403.353 758.935 L 403.353 758.935 L 403.353 758.935 Q 404.538 758.453 406.029 758.453 Z  M 406.029 760.932 L 406.029 760.932 L 406.029 760.932 Q 405.174 760.932 404.527 761.272 L 404.527 761.272 L 404.527 761.272 Q 403.879 761.612 403.452 762.248 L 403.452 762.248 L 403.452 762.248 Q 403.024 762.884 402.81 763.8 L 402.81 763.8 L 402.81 763.8 Q 402.596 764.716 402.596 765.868 L 402.596 765.868 L 402.596 766.998 L 402.596 766.998 Q 402.596 768.15 402.81 769.066 L 402.81 769.066 L 402.81 769.066 Q 403.024 769.981 403.452 770.618 L 403.452 770.618 L 403.452 770.618 Q 403.879 771.254 404.527 771.594 L 404.527 771.594 L 404.527 771.594 Q 405.174 771.934 406.029 771.934 L 406.029 771.934 L 406.029 771.934 Q 406.885 771.934 407.532 771.594 L 407.532 771.594 L 407.532 771.594 Q 408.179 771.254 408.613 770.618 L 408.613 770.618 L 408.613 770.618 Q 409.046 769.981 409.26 769.066 L 409.26 769.066 L 409.26 769.066 Q 409.474 768.15 409.474 766.998 L 409.474 766.998 L 409.474 765.868 L 409.474 765.868 Q 409.474 764.716 409.26 763.8 L 409.26 763.8 L 409.26 763.8 Q 409.046 762.884 408.613 762.248 L 408.613 762.248 L 408.613 762.248 Q 408.179 761.612 407.532 761.272 L 407.532 761.272 L 407.532 761.272 Q 406.885 760.932 406.029 760.932 Z  M 420.41 767.711 L 417.427 767.711 L 417.427 774.139 L 414.553 774.139 L 414.553 758.727 L 421.003 758.727 L 421.003 758.727 Q 422.165 758.727 423.048 759.056 L 423.048 759.056 L 423.048 759.056 Q 423.931 759.385 424.524 759.972 L 424.524 759.972 L 424.524 759.972 Q 425.116 760.559 425.418 761.365 L 425.418 761.365 L 425.418 761.365 Q 425.719 762.171 425.719 763.126 L 425.719 763.126 L 425.719 763.126 Q 425.719 763.828 425.538 764.442 L 425.538 764.442 L 425.538 764.442 Q 425.357 765.056 425.023 765.561 L 425.023 765.561 L 425.023 765.561 Q 424.688 766.065 424.211 766.455 L 424.211 766.455 L 424.211 766.455 Q 423.734 766.844 423.131 767.086 L 423.131 767.086 L 426.103 774.139 L 422.977 774.139 L 420.41 767.711 Z  M 420.706 761.294 L 417.427 761.294 L 417.427 765.177 L 420.597 765.177 L 420.597 765.177 Q 421.65 765.177 422.132 764.634 L 422.132 764.634 L 422.132 764.634 Q 422.615 764.091 422.615 763.126 L 422.615 763.126 L 422.615 763.126 Q 422.615 762.281 422.16 761.787 L 422.16 761.787 L 422.16 761.787 Q 421.705 761.294 420.706 761.294 L 420.706 761.294 Z  M 440.649 774.139 L 438.005 774.139 L 438.005 764.321 L 438.005 764.321 Q 438.005 764.069 438.022 763.647 L 438.022 763.647 L 438.022 763.647 Q 438.038 763.224 438.06 762.829 L 438.06 762.829 L 438.06 762.829 Q 438.082 762.369 438.115 761.853 L 438.115 761.853 L 438.027 761.853 L 435.329 774.139 L 432.839 774.139 L 430.118 761.853 L 430.03 761.853 L 430.03 761.853 Q 430.052 762.391 430.085 762.862 L 430.085 762.862 L 430.085 762.862 Q 430.096 763.06 430.102 763.274 L 430.102 763.274 L 430.102 763.274 Q 430.107 763.488 430.118 763.685 L 430.118 763.685 L 430.118 763.685 Q 430.129 763.882 430.135 764.047 L 430.135 764.047 L 430.135 764.047 Q 430.14 764.212 430.14 764.321 L 430.14 764.321 L 430.14 774.139 L 427.694 774.139 L 427.694 758.727 L 431.731 758.727 L 433.639 767.217 L 433.639 767.217 Q 433.683 767.404 433.733 767.656 L 433.733 767.656 L 433.733 767.656 Q 433.782 767.908 433.831 768.188 L 433.831 768.188 L 433.831 768.188 Q 433.881 768.468 433.936 768.769 L 433.936 768.769 L 433.936 768.769 Q 433.99 769.071 434.034 769.345 L 434.034 769.345 L 434.034 769.345 Q 434.144 770.003 434.254 770.705 L 434.254 770.705 L 434.341 770.705 L 434.341 770.705 Q 434.429 769.971 434.517 769.301 L 434.517 769.301 L 434.517 769.301 Q 434.55 769.016 434.594 768.72 L 434.594 768.72 L 434.594 768.72 Q 434.638 768.424 434.681 768.144 L 434.681 768.144 L 434.681 768.144 Q 434.725 767.864 434.769 767.623 L 434.769 767.623 L 434.769 767.623 Q 434.813 767.382 434.857 767.217 L 434.857 767.217 L 436.744 758.727 L 440.649 758.727 L 440.649 774.139 Z  M 450.159 758.727 L 455.117 774.139 L 452.178 774.139 L 451.234 771.111 L 445.552 771.111 L 444.631 774.139 L 441.845 774.139 L 446.814 758.727 L 450.159 758.727 Z  M 448.448 761.316 L 448.36 761.316 L 448.36 761.316 Q 448.295 761.722 448.218 762.094 L 448.218 762.094 L 448.218 762.094 Q 448.152 762.413 448.075 762.775 L 448.075 762.775 L 448.075 762.775 Q 447.998 763.137 447.911 763.4 L 447.911 763.4 L 446.342 768.544 L 450.445 768.544 L 448.898 763.4 L 448.898 763.4 Q 448.81 763.093 448.722 762.731 L 448.722 762.731 L 448.722 762.731 Q 448.635 762.369 448.58 762.051 L 448.58 762.051 L 448.58 762.051 Q 448.503 761.689 448.448 761.316 L 448.448 761.316 Z  M 466.032 758.727 L 466.032 761.294 L 462.215 761.294 L 462.215 774.139 L 459.341 774.139 L 459.341 761.294 L 455.523 761.294 L 455.523 758.727 L 466.032 758.727 Z  M 478.68 758.727 L 473.985 768.325 L 473.985 774.139 L 471.111 774.139 L 471.111 768.325 L 466.394 758.727 L 469.422 758.727 L 472.57 765.495 L 472.658 765.495 L 475.784 758.727 L 478.68 758.727 Z  M 482.925 758.727 L 482.925 766.614 L 488.563 758.727 L 491.777 758.727 L 487.214 764.99 L 491.909 774.139 L 488.673 774.139 L 485.327 767.261 L 482.925 770.212 L 482.925 774.139 L 480.029 774.139 L 480.029 758.727 L 482.925 758.727 Z  M 499.138 758.453 L 499.138 758.453 L 499.138 758.453 Q 500.63 758.453 501.82 758.935 L 501.82 758.935 L 501.82 758.935 Q 503.01 759.418 503.838 760.405 L 503.838 760.405 L 503.838 760.405 Q 504.666 761.392 505.105 762.895 L 505.105 762.895 L 505.105 762.895 Q 505.544 764.398 505.544 766.438 L 505.544 766.438 L 505.544 766.438 Q 505.544 768.479 505.105 769.976 L 505.105 769.976 L 505.105 769.976 Q 504.666 771.473 503.838 772.461 L 503.838 772.461 L 503.838 772.461 Q 503.01 773.448 501.82 773.93 L 501.82 773.93 L 501.82 773.93 Q 500.63 774.413 499.138 774.413 L 499.138 774.413 L 499.138 774.413 Q 497.646 774.413 496.461 773.93 L 496.461 773.93 L 496.461 773.93 Q 495.277 773.448 494.448 772.461 L 494.448 772.461 L 494.448 772.461 Q 493.62 771.473 493.181 769.976 L 493.181 769.976 L 493.181 769.976 Q 492.743 768.479 492.743 766.438 L 492.743 766.438 L 492.743 766.438 Q 492.743 764.398 493.181 762.895 L 493.181 762.895 L 493.181 762.895 Q 493.62 761.392 494.448 760.405 L 494.448 760.405 L 494.448 760.405 Q 495.277 759.418 496.461 758.935 L 496.461 758.935 L 496.461 758.935 Q 497.646 758.453 499.138 758.453 Z  M 499.138 760.932 L 499.138 760.932 L 499.138 760.932 Q 498.282 760.932 497.635 761.272 L 497.635 761.272 L 497.635 761.272 Q 496.988 761.612 496.56 762.248 L 496.56 762.248 L 496.56 762.248 Q 496.132 762.884 495.918 763.8 L 495.918 763.8 L 495.918 763.8 Q 495.704 764.716 495.704 765.868 L 495.704 765.868 L 495.704 766.998 L 495.704 766.998 Q 495.704 768.15 495.918 769.066 L 495.918 769.066 L 495.918 769.066 Q 496.132 769.981 496.56 770.618 L 496.56 770.618 L 496.56 770.618 Q 496.988 771.254 497.635 771.594 L 497.635 771.594 L 497.635 771.594 Q 498.282 771.934 499.138 771.934 L 499.138 771.934 L 499.138 771.934 Q 499.993 771.934 500.641 771.594 L 500.641 771.594 L 500.641 771.594 Q 501.288 771.254 501.721 770.618 L 501.721 770.618 L 501.721 770.618 Q 502.154 769.981 502.368 769.066 L 502.368 769.066 L 502.368 769.066 Q 502.582 768.15 502.582 766.998 L 502.582 766.998 L 502.582 765.868 L 502.582 765.868 Q 502.582 764.716 502.368 763.8 L 502.368 763.8 L 502.368 763.8 Q 502.154 762.884 501.721 762.248 L 501.721 762.248 L 501.721 762.248 Q 501.288 761.612 500.641 761.272 L 500.641 761.272 L 500.641 761.272 Q 499.993 760.932 499.138 760.932 Z  M 502.231 754.295 L 502.253 754.361 L 499.829 757.268 L 497.602 757.268 L 499.533 754.295 L 502.231 754.295 Z  M 523.676 758.727 L 520.331 774.139 L 517.435 774.139 L 515.34 764.321 L 515.34 764.321 Q 515.274 764.025 515.219 763.652 L 515.219 763.652 L 515.219 763.652 Q 515.164 763.279 515.12 762.939 L 515.12 762.939 L 515.12 762.939 Q 515.076 762.544 515.032 762.138 L 515.032 762.138 L 514.934 762.138 L 514.934 762.138 Q 514.868 762.577 514.824 762.983 L 514.824 762.983 L 514.824 762.983 Q 514.769 763.334 514.725 763.707 L 514.725 763.707 L 514.725 763.707 Q 514.681 764.08 514.627 764.321 L 514.627 764.321 L 512.553 774.139 L 509.657 774.139 L 506.312 758.727 L 509.164 758.727 L 511.007 768.204 L 511.007 768.204 Q 511.062 768.457 511.111 768.83 L 511.111 768.83 L 511.111 768.83 Q 511.16 769.203 511.204 769.543 L 511.204 769.543 L 511.204 769.543 Q 511.248 769.949 511.303 770.365 L 511.303 770.365 L 511.391 770.365 L 511.391 770.365 Q 511.434 769.938 511.478 769.532 L 511.478 769.532 L 511.478 769.532 Q 511.522 769.181 511.572 768.819 L 511.572 768.819 L 511.572 768.819 Q 511.621 768.457 511.676 768.204 L 511.676 768.204 L 513.541 758.727 L 516.799 758.727 L 518.641 768.204 L 518.641 768.204 Q 518.685 768.435 518.74 768.802 L 518.74 768.802 L 518.74 768.802 Q 518.795 769.17 518.839 769.521 L 518.839 769.521 L 518.839 769.521 Q 518.883 769.927 518.938 770.365 L 518.938 770.365 L 519.025 770.365 L 519.113 769.576 L 519.113 769.576 Q 519.157 769.247 519.206 768.868 L 519.206 768.868 L 519.206 768.868 Q 519.256 768.49 519.321 768.204 L 519.321 768.204 L 521.208 758.727 L 523.676 758.727 Z  M 438.981 748.361 L 436.415 748.361 L 431.654 739.87 L 431.654 739.87 Q 431.588 739.75 431.473 739.514 L 431.473 739.514 L 431.473 739.514 Q 431.358 739.278 431.237 739.037 L 431.237 739.037 L 431.237 739.037 Q 431.105 738.752 430.952 738.433 L 430.952 738.433 L 430.864 738.499 L 430.864 738.499 Q 430.875 738.752 430.886 738.993 L 430.886 738.993 L 430.886 738.993 Q 430.897 739.201 430.903 739.415 L 430.903 739.415 L 430.903 739.415 Q 430.908 739.629 430.908 739.783 L 430.908 739.783 L 430.908 748.361 L 428.374 748.361 L 428.374 732.949 L 430.908 732.949 L 435.669 741.439 L 435.669 741.439 Q 435.756 741.593 435.883 741.834 L 435.883 741.834 L 435.883 741.834 Q 436.009 742.075 436.118 742.306 L 436.118 742.306 L 436.118 742.306 Q 436.239 742.58 436.371 742.876 L 436.371 742.876 L 436.437 742.81 L 436.437 742.81 Q 436.426 742.514 436.426 742.262 L 436.426 742.262 L 436.426 742.262 Q 436.415 742.042 436.415 741.834 L 436.415 741.834 L 436.415 741.834 Q 436.415 741.626 436.415 741.527 L 436.415 741.527 L 436.415 732.949 L 438.981 732.949 L 438.981 748.361 Z  M 448.635 732.949 L 453.593 748.361 L 450.653 748.361 L 449.71 745.333 L 444.027 745.333 L 443.106 748.361 L 440.32 748.361 L 445.289 732.949 L 448.635 732.949 Z  M 446.923 735.538 L 446.836 735.538 L 446.836 735.538 Q 446.77 735.943 446.693 736.316 L 446.693 736.316 L 446.693 736.316 Q 446.627 736.634 446.55 736.996 L 446.55 736.996 L 446.55 736.996 Q 446.474 737.358 446.386 737.622 L 446.386 737.622 L 444.817 742.766 L 448.92 742.766 L 447.373 737.622 L 447.373 737.622 Q 447.285 737.315 447.198 736.953 L 447.198 736.953 L 447.198 736.953 Q 447.11 736.591 447.055 736.272 L 447.055 736.272 L 447.055 736.272 Q 446.978 735.91 446.923 735.538 L 446.923 735.538 Z  M 454.986 743.534 L 454.986 732.949 L 457.86 732.949 L 457.86 743.435 L 457.86 743.435 Q 457.86 744.774 458.485 745.465 L 458.485 745.465 L 458.485 745.465 Q 459.11 746.156 460.262 746.156 L 460.262 746.156 L 460.262 746.156 Q 461.414 746.156 462.05 745.465 L 462.05 745.465 L 462.05 745.465 Q 462.686 744.774 462.686 743.435 L 462.686 743.435 L 462.686 732.949 L 465.571 732.949 L 465.571 743.534 L 465.571 743.534 Q 465.571 744.785 465.204 745.739 L 465.204 745.739 L 465.204 745.739 Q 464.836 746.693 464.151 747.335 L 464.151 747.335 L 464.151 747.335 Q 463.465 747.977 462.483 748.306 L 462.483 748.306 L 462.483 748.306 Q 461.502 748.635 460.262 748.635 L 460.262 748.635 L 460.262 748.635 Q 459.023 748.635 458.046 748.306 L 458.046 748.306 L 458.046 748.306 Q 457.07 747.977 456.39 747.335 L 456.39 747.335 L 456.39 747.335 Q 455.71 746.693 455.348 745.739 L 455.348 745.739 L 455.348 745.739 Q 454.986 744.785 454.986 743.534 L 454.986 743.534 Z  M 471.155 732.949 L 471.155 740.836 L 476.793 732.949 L 480.007 732.949 L 475.444 739.212 L 480.139 748.361 L 476.903 748.361 L 473.557 741.483 L 471.155 744.434 L 471.155 748.361 L 468.259 748.361 L 468.259 732.949 L 471.155 732.949 Z  M 487.368 732.674 L 487.368 732.674 L 487.368 732.674 Q 488.859 732.674 490.05 733.157 L 490.05 733.157 L 490.05 733.157 Q 491.24 733.64 492.068 734.627 L 492.068 734.627 L 492.068 734.627 Q 492.896 735.614 493.335 737.117 L 493.335 737.117 L 493.335 737.117 Q 493.774 738.62 493.774 740.66 L 493.774 740.66 L 493.774 740.66 Q 493.774 742.701 493.335 744.198 L 493.335 744.198 L 493.335 744.198 Q 492.896 745.695 492.068 746.682 L 492.068 746.682 L 492.068 746.682 Q 491.24 747.67 490.05 748.152 L 490.05 748.152 L 490.05 748.152 Q 488.859 748.635 487.368 748.635 L 487.368 748.635 L 487.368 748.635 Q 485.876 748.635 484.691 748.152 L 484.691 748.152 L 484.691 748.152 Q 483.506 747.67 482.678 746.682 L 482.678 746.682 L 482.678 746.682 Q 481.85 745.695 481.411 744.198 L 481.411 744.198 L 481.411 744.198 Q 480.972 742.701 480.972 740.66 L 480.972 740.66 L 480.972 740.66 Q 480.972 738.62 481.411 737.117 L 481.411 737.117 L 481.411 737.117 Q 481.85 735.614 482.678 734.627 L 482.678 734.627 L 482.678 734.627 Q 483.506 733.64 484.691 733.157 L 484.691 733.157 L 484.691 733.157 Q 485.876 732.674 487.368 732.674 Z  M 487.368 735.154 L 487.368 735.154 L 487.368 735.154 Q 486.512 735.154 485.865 735.494 L 485.865 735.494 L 485.865 735.494 Q 485.218 735.834 484.79 736.47 L 484.79 736.47 L 484.79 736.47 Q 484.362 737.106 484.148 738.022 L 484.148 738.022 L 484.148 738.022 Q 483.934 738.938 483.934 740.09 L 483.934 740.09 L 483.934 741.22 L 483.934 741.22 Q 483.934 742.371 484.148 743.287 L 484.148 743.287 L 484.148 743.287 Q 484.362 744.203 484.79 744.84 L 484.79 744.84 L 484.79 744.84 Q 485.218 745.476 485.865 745.816 L 485.865 745.816 L 485.865 745.816 Q 486.512 746.156 487.368 746.156 L 487.368 746.156 L 487.368 746.156 Q 488.223 746.156 488.87 745.816 L 488.87 745.816 L 488.87 745.816 Q 489.518 745.476 489.951 744.84 L 489.951 744.84 L 489.951 744.84 Q 490.384 744.203 490.598 743.287 L 490.598 743.287 L 490.598 743.287 Q 490.812 742.371 490.812 741.22 L 490.812 741.22 L 490.812 740.09 L 490.812 740.09 Q 490.812 738.938 490.598 738.022 L 490.598 738.022 L 490.598 738.022 Q 490.384 737.106 489.951 736.47 L 489.951 736.47 L 489.951 736.47 Q 489.518 735.834 488.87 735.494 L 488.87 735.494 L 488.87 735.494 Q 488.223 735.154 487.368 735.154 Z  M 511.906 732.949 L 508.56 748.361 L 505.665 748.361 L 503.569 738.543 L 503.569 738.543 Q 503.504 738.247 503.449 737.874 L 503.449 737.874 L 503.449 737.874 Q 503.394 737.501 503.35 737.161 L 503.35 737.161 L 503.35 737.161 Q 503.306 736.766 503.262 736.36 L 503.262 736.36 L 503.164 736.36 L 503.164 736.36 Q 503.098 736.799 503.054 737.205 L 503.054 737.205 L 503.054 737.205 Q 502.999 737.556 502.955 737.929 L 502.955 737.929 L 502.955 737.929 Q 502.911 738.302 502.856 738.543 L 502.856 738.543 L 500.783 748.361 L 497.887 748.361 L 494.542 732.949 L 497.394 732.949 L 499.236 742.426 L 499.236 742.426 Q 499.291 742.679 499.341 743.052 L 499.341 743.052 L 499.341 743.052 Q 499.39 743.425 499.434 743.765 L 499.434 743.765 L 499.434 743.765 Q 499.478 744.17 499.533 744.587 L 499.533 744.587 L 499.62 744.587 L 499.62 744.587 Q 499.664 744.159 499.708 743.754 L 499.708 743.754 L 499.708 743.754 Q 499.752 743.403 499.801 743.041 L 499.801 743.041 L 499.801 743.041 Q 499.851 742.679 499.906 742.426 L 499.906 742.426 L 501.77 732.949 L 505.028 732.949 L 506.871 742.426 L 506.871 742.426 Q 506.915 742.657 506.97 743.024 L 506.97 743.024 L 506.97 743.024 Q 507.025 743.392 507.069 743.743 L 507.069 743.743 L 507.069 743.743 Q 507.113 744.149 507.167 744.587 L 507.167 744.587 L 507.255 744.587 L 507.343 743.797 L 507.343 743.797 Q 507.387 743.468 507.436 743.09 L 507.436 743.09 L 507.436 743.09 Q 507.485 742.712 507.551 742.426 L 507.551 742.426 L 509.438 732.949 L 511.906 732.949 Z  M 523.227 748.361 L 513.277 748.361 L 513.277 732.949 L 523.095 732.949 L 523.095 735.516 L 516.151 735.516 L 516.151 739.19 L 522.108 739.19 L 522.108 741.757 L 516.151 741.757 L 516.151 745.805 L 523.227 745.805 L 523.227 748.361 Z  M 372.924 732.949 L 372.924 740.836 L 378.562 732.949 L 381.776 732.949 L 377.213 739.212 L 381.908 748.361 L 378.672 748.361 L 375.326 741.483 L 372.924 744.434 L 372.924 748.361 L 370.028 748.361 L 370.028 732.949 L 372.924 732.949 Z  M 389.136 732.674 L 389.136 732.674 L 389.136 732.674 Q 390.628 732.674 391.818 733.157 L 391.818 733.157 L 391.818 733.157 Q 393.009 733.64 393.837 734.627 L 393.837 734.627 L 393.837 734.627 Q 394.665 735.614 395.104 737.117 L 395.104 737.117 L 395.104 737.117 Q 395.543 738.62 395.543 740.66 L 395.543 740.66 L 395.543 740.66 Q 395.543 742.701 395.104 744.198 L 395.104 744.198 L 395.104 744.198 Q 394.665 745.695 393.837 746.682 L 393.837 746.682 L 393.837 746.682 Q 393.009 747.67 391.818 748.152 L 391.818 748.152 L 391.818 748.152 Q 390.628 748.635 389.136 748.635 L 389.136 748.635 L 389.136 748.635 Q 387.645 748.635 386.46 748.152 L 386.46 748.152 L 386.46 748.152 Q 385.275 747.67 384.447 746.682 L 384.447 746.682 L 384.447 746.682 Q 383.619 745.695 383.18 744.198 L 383.18 744.198 L 383.18 744.198 Q 382.741 742.701 382.741 740.66 L 382.741 740.66 L 382.741 740.66 Q 382.741 738.62 383.18 737.117 L 383.18 737.117 L 383.18 737.117 Q 383.619 735.614 384.447 734.627 L 384.447 734.627 L 384.447 734.627 Q 385.275 733.64 386.46 733.157 L 386.46 733.157 L 386.46 733.157 Q 387.645 732.674 389.136 732.674 Z  M 389.136 735.154 L 389.136 735.154 L 389.136 735.154 Q 388.281 735.154 387.634 735.494 L 387.634 735.494 L 387.634 735.494 Q 386.986 735.834 386.559 736.47 L 386.559 736.47 L 386.559 736.47 Q 386.131 737.106 385.917 738.022 L 385.917 738.022 L 385.917 738.022 Q 385.703 738.938 385.703 740.09 L 385.703 740.09 L 385.703 741.22 L 385.703 741.22 Q 385.703 742.371 385.917 743.287 L 385.917 743.287 L 385.917 743.287 Q 386.131 744.203 386.559 744.84 L 386.559 744.84 L 386.559 744.84 Q 386.986 745.476 387.634 745.816 L 387.634 745.816 L 387.634 745.816 Q 388.281 746.156 389.136 746.156 L 389.136 746.156 L 389.136 746.156 Q 389.992 746.156 390.639 745.816 L 390.639 745.816 L 390.639 745.816 Q 391.286 745.476 391.72 744.84 L 391.72 744.84 L 391.72 744.84 Q 392.153 744.203 392.367 743.287 L 392.367 743.287 L 392.367 743.287 Q 392.581 742.371 392.581 741.22 L 392.581 741.22 L 392.581 740.09 L 392.581 740.09 Q 392.581 738.938 392.367 738.022 L 392.367 738.022 L 392.367 738.022 Q 392.153 737.106 391.72 736.47 L 391.72 736.47 L 391.72 736.47 Q 391.286 735.834 390.639 735.494 L 390.639 735.494 L 390.639 735.494 Q 389.992 735.154 389.136 735.154 Z  M 403.144 736.009 L 403.144 738.181 L 400.534 740.496 L 400.534 745.662 L 407.05 745.662 L 407.05 748.361 L 397.66 748.361 L 397.66 743.041 L 396.31 744.225 L 396.31 742.097 L 397.66 740.902 L 397.66 732.949 L 400.534 732.949 L 400.534 738.346 L 403.144 736.009 Z  M 414.728 732.674 L 414.728 732.674 L 414.728 732.674 Q 416.22 732.674 417.41 733.157 L 417.41 733.157 L 417.41 733.157 Q 418.6 733.64 419.429 734.627 L 419.429 734.627 L 419.429 734.627 Q 420.257 735.614 420.695 737.117 L 420.695 737.117 L 420.695 737.117 Q 421.134 738.62 421.134 740.66 L 421.134 740.66 L 421.134 740.66 Q 421.134 742.701 420.695 744.198 L 420.695 744.198 L 420.695 744.198 Q 420.257 745.695 419.429 746.682 L 419.429 746.682 L 419.429 746.682 Q 418.6 747.67 417.41 748.152 L 417.41 748.152 L 417.41 748.152 Q 416.22 748.635 414.728 748.635 L 414.728 748.635 L 414.728 748.635 Q 413.236 748.635 412.052 748.152 L 412.052 748.152 L 412.052 748.152 Q 410.867 747.67 410.039 746.682 L 410.039 746.682 L 410.039 746.682 Q 409.21 745.695 408.772 744.198 L 408.772 744.198 L 408.772 744.198 Q 408.333 742.701 408.333 740.66 L 408.333 740.66 L 408.333 740.66 Q 408.333 738.62 408.772 737.117 L 408.772 737.117 L 408.772 737.117 Q 409.21 735.614 410.039 734.627 L 410.039 734.627 L 410.039 734.627 Q 410.867 733.64 412.052 733.157 L 412.052 733.157 L 412.052 733.157 Q 413.236 732.674 414.728 732.674 Z  M 414.728 735.154 L 414.728 735.154 L 414.728 735.154 Q 413.872 735.154 413.225 735.494 L 413.225 735.494 L 413.225 735.494 Q 412.578 735.834 412.15 736.47 L 412.15 736.47 L 412.15 736.47 Q 411.722 737.106 411.509 738.022 L 411.509 738.022 L 411.509 738.022 Q 411.295 738.938 411.295 740.09 L 411.295 740.09 L 411.295 741.22 L 411.295 741.22 Q 411.295 742.371 411.509 743.287 L 411.509 743.287 L 411.509 743.287 Q 411.722 744.203 412.15 744.84 L 412.15 744.84 L 412.15 744.84 Q 412.578 745.476 413.225 745.816 L 413.225 745.816 L 413.225 745.816 Q 413.872 746.156 414.728 746.156 L 414.728 746.156 L 414.728 746.156 Q 415.584 746.156 416.231 745.816 L 416.231 745.816 L 416.231 745.816 Q 416.878 745.476 417.311 744.84 L 417.311 744.84 L 417.311 744.84 Q 417.745 744.203 417.959 743.287 L 417.959 743.287 L 417.959 743.287 Q 418.173 742.371 418.173 741.22 L 418.173 741.22 L 418.173 740.09 L 418.173 740.09 Q 418.173 738.938 417.959 738.022 L 417.959 738.022 L 417.959 738.022 Q 417.745 737.106 417.311 736.47 L 417.311 736.47 L 417.311 736.47 Q 416.878 735.834 416.231 735.494 L 416.231 735.494 L 416.231 735.494 Q 415.584 735.154 414.728 735.154 Z " fill-rule="evenodd" fill="rgb(255,255,255)"/></g></g><g id="kni-simple-shape"><g id="g3761"><path d=" M 71.599 646.553 L 71.599 585.952 L 80.689 585.952 L 89.779 585.952 L 89.779 611.181 L 89.779 636.409 L 92.052 636.045 C 108.794 633.363 122.432 615.014 123.509 593.721 L 123.902 585.952 L 132.992 585.952 L 142.082 585.952 L 141.724 594.285 C 140.796 615.893 131.308 634.275 115.685 644.735 Q 115.028 645.175 113.052 646.553 Q 114.962 647.887 115.685 648.371 C 119.676 651.042 127.825 659.273 130.815 663.652 L 133.715 667.899 L 134.068 651.923 C 134.972 610.984 158.194 585.952 195.27 585.952 L 203.709 585.952 L 203.709 646.553 L 203.709 707.153 L 194.618 707.153 L 185.528 707.153 L 185.528 656.17 L 185.383 605.186 L 183.314 605.545 C 173.902 607.072 161.8 617.201 156.402 628.07 C 152.312 636.305 152.22 637.314 152.209 674.277 L 152.198 707.153 L 138.05 707.153 L 123.902 707.153 L 123.5 699.427 C 122.359 677.533 105.821 656.999 89.9 656.861 C 89.636 657.09 90.114 662.522 89.779 682.004 L 89.779 707.153 L 80.689 707.153 L 71.599 707.153 L 71.599 646.553 Z  M 207.858 646.553 L 207.858 585.952 L 216.948 585.952 L 226.039 585.952 L 226.039 646.553 L 226.039 707.153 L 216.948 707.153 L 207.858 707.153 L 207.858 646.553 Z " fill="rgb(0,0,0)"/></g></g><g id="kni-simple-shape"><g id="g3761"><path d=" M 122.219 753.538 L 122.219 732.662 L 125.35 732.662 L 128.481 732.662 L 128.481 741.353 L 128.481 750.044 L 129.264 749.918 C 135.031 748.994 139.729 742.674 140.1 735.339 L 140.236 732.662 L 143.367 732.662 L 146.498 732.662 L 146.375 735.533 C 146.055 742.976 142.787 749.308 137.405 752.912 Q 137.179 753.063 136.498 753.538 Q 137.156 753.997 137.405 754.164 C 138.78 755.084 141.587 757.92 142.617 759.428 L 143.616 760.891 L 143.737 755.388 C 144.049 741.285 152.048 732.662 164.82 732.662 L 167.727 732.662 L 167.727 753.538 L 167.727 774.413 L 164.596 774.413 L 161.464 774.413 L 161.464 756.851 L 161.414 739.288 L 160.702 739.412 C 157.459 739.938 153.291 743.427 151.431 747.171 C 150.022 750.008 149.991 750.355 149.987 763.088 L 149.983 774.413 L 145.109 774.413 L 140.236 774.413 L 140.097 771.752 C 139.704 764.21 134.007 757.136 128.523 757.089 C 128.432 757.168 128.596 759.039 128.481 765.75 L 128.481 774.413 L 125.35 774.413 L 122.219 774.413 L 122.219 753.538 Z  M 169.156 753.538 L 169.156 732.662 L 172.288 732.662 L 175.419 732.662 L 175.419 753.538 L 175.419 774.413 L 172.288 774.413 L 169.156 774.413 L 169.156 753.538 Z " fill="rgb(0,0,0)"/></g></g></svg>